<svg width="500" height="500" viewBox="0 0 500 500" fill="none" xmlns="http://www.w3.org/2000/svg">
<g opacity="0.6" clip-path="url(#clip0_3954_5130)">
<rect width="500" height="500" fill="#C3E9FF"/>
<path d="M546.805 122.408C543.745 120.546 541.285 118.226 539.581 115.927C538.731 114.763 538.095 113.641 537.676 112.513C537.253 111.386 537.034 110.254 537.034 109.015V109.005V108.988C537.034 107.746 537.253 106.612 537.676 105.485C538.095 104.361 538.731 103.237 539.581 102.075C541.285 99.7756 543.745 97.4541 546.805 95.592C547.502 95.1678 547.815 94.3193 547.566 93.5475C547.316 92.7742 546.56 92.2746 545.752 92.3402C545.001 92.3996 544.261 92.4285 543.531 92.4268C540.793 92.4283 538.241 92.0119 536.085 91.3316C534.716 90.8914 533.545 90.3533 532.543 89.6922C531.539 89.0277 530.697 88.2385 529.967 87.2377L529.965 87.2361C529.238 86.2338 528.747 85.1947 528.423 84.0404C528.098 82.8861 527.949 81.6084 527.949 80.1771V80.1564V80.15C527.969 77.2906 528.596 73.9586 529.983 70.6494C530.3 69.8969 530.058 69.0322 529.397 68.5488C528.734 68.0686 527.837 68.1053 527.218 68.6367C524.494 70.976 521.518 72.593 518.803 73.4961L518.814 73.493C517.267 73.9973 515.852 74.2551 514.513 74.2551C513.474 74.2535 512.475 74.1045 511.45 73.7699L511.447 73.7684C510.274 73.3873 509.262 72.8334 508.319 72.0842C507.377 71.3381 506.503 70.3902 505.654 69.2264C503.986 66.9002 502.532 63.8404 501.711 60.3533C501.524 59.5588 500.817 59 500 59C499.182 59 498.476 59.5588 498.289 60.3529C497.469 63.84 496.012 66.8998 494.345 69.226C493.497 70.39 492.622 71.3377 491.681 72.0838C490.737 72.833 489.728 73.3869 488.554 73.768L488.551 73.7695C487.526 74.1041 486.524 74.2531 485.487 74.2547C484.15 74.2547 482.736 73.9953 481.186 73.4926L481.199 73.4957C478.479 72.5926 475.503 70.9756 472.786 68.6363C472.164 68.1049 471.266 68.0682 470.605 68.5484C469.944 69.0318 469.702 69.8965 470.019 70.649C471.402 73.9584 472.03 77.2869 472.052 80.1496V80.1768C472.052 81.608 471.9 82.8857 471.578 84.04C471.253 85.1943 470.76 86.2334 470.033 87.2357L470.032 87.2373C469.303 88.2381 468.463 89.0273 467.459 89.6918C466.457 90.3531 465.285 90.891 463.916 91.3312C461.759 92.0117 459.209 92.4281 456.47 92.4281C455.743 92.4281 455.001 92.3992 454.25 92.3398C453.44 92.2742 452.686 92.7738 452.437 93.5471C452.184 94.3187 452.499 95.1674 453.197 95.5916C456.255 97.4537 458.718 99.7752 460.419 102.074C461.268 103.237 461.902 104.361 462.326 105.484C462.749 106.61 462.965 107.74 462.968 108.98V109.001V109.02C462.965 110.259 462.749 111.388 462.326 112.515C461.902 113.64 461.268 114.763 460.419 115.927L460.426 115.915C458.724 118.216 456.26 120.544 453.197 122.408C452.499 122.83 452.184 123.681 452.437 124.452C452.686 125.225 453.442 125.727 454.252 125.661C455.002 125.6 455.743 125.571 456.471 125.571C459.209 125.571 461.76 125.989 463.916 126.668C465.285 127.11 466.457 127.645 467.459 128.308C468.463 128.974 469.304 129.761 470.032 130.765H470.034C470.761 131.764 471.254 132.804 471.579 133.959C471.9 135.115 472.052 136.391 472.052 137.824V137.851C472.03 140.714 471.402 144.041 470.019 147.351C469.702 148.104 469.944 148.969 470.605 149.451C471.266 149.93 472.164 149.896 472.786 149.363C475.501 147.029 478.476 145.408 481.191 144.505C482.739 144.006 484.15 143.743 485.485 143.745C486.524 143.745 487.525 143.897 488.549 144.232L488.554 144.233C489.728 144.613 490.737 145.167 491.683 145.914C492.626 146.665 493.502 147.615 494.35 148.78L494.342 148.772C496.01 151.097 497.469 154.158 498.289 157.648C498.476 158.441 499.182 159 500 159C500.817 159 501.524 158.441 501.712 157.648C502.533 154.16 503.987 151.099 505.655 148.774C506.504 147.612 507.378 146.664 508.319 145.914C509.262 145.167 510.274 144.613 511.448 144.233L511.451 144.232C512.476 143.897 513.478 143.745 514.514 143.744C515.852 143.744 517.263 144.006 518.81 144.506C521.525 145.409 524.496 147.029 527.215 149.363C527.838 149.896 528.735 149.93 529.397 149.451C530.058 148.969 530.3 148.105 529.983 147.351C528.597 144.041 527.969 140.713 527.95 137.852V137.824C527.95 136.392 528.099 135.115 528.424 133.96C528.747 132.804 529.239 131.764 529.966 130.765H529.967C530.697 129.762 531.54 128.974 532.544 128.308C533.546 127.645 534.716 127.11 536.085 126.668C538.242 125.99 540.794 125.572 543.532 125.572C544.26 125.572 545.002 125.601 545.751 125.661C546.561 125.729 547.317 125.226 547.566 124.453C547.815 123.681 547.502 122.831 546.805 122.408ZM535.025 123.316L535.013 123.321C533.411 123.838 531.934 124.496 530.604 125.375C529.275 126.254 528.098 127.354 527.123 128.697L527.125 128.695C526.15 130.029 525.464 131.483 525.035 133.013C524.608 134.543 524.433 136.147 524.433 137.825V137.874V137.879C524.448 139.677 524.671 141.59 525.104 143.555C523.37 142.536 521.617 141.736 519.912 141.169L519.902 141.166C518.096 140.577 516.311 140.229 514.513 140.229C513.123 140.229 511.735 140.439 510.362 140.889C508.786 141.396 507.376 142.171 506.13 143.161C504.883 144.155 503.794 145.353 502.808 146.713L502.797 146.723C501.754 148.185 500.804 149.863 500 151.709C499.198 149.863 498.247 148.185 497.2 146.723L497.193 146.713C496.202 145.353 495.117 144.154 493.87 143.161C492.622 142.171 491.213 141.395 489.633 140.887C488.261 140.439 486.873 140.229 485.485 140.229C483.69 140.231 481.905 140.577 480.099 141.166L480.088 141.169C478.383 141.736 476.631 142.536 474.894 143.554C475.331 141.59 475.552 139.677 475.566 137.879V137.845V137.837V137.824C475.566 136.148 475.392 134.544 474.963 133.013C474.537 131.484 473.85 130.029 472.877 128.695L472.878 128.696C471.903 127.353 470.726 126.253 469.396 125.374C468.067 124.495 466.588 123.837 464.985 123.32L464.975 123.315C463.262 122.776 461.365 122.404 459.36 122.209C460.872 120.874 462.183 119.454 463.253 118.008L463.26 117.995C464.247 116.641 465.055 115.243 465.616 113.752C466.176 112.263 466.483 110.683 466.482 109.02V109.001V108.991V108.98V108.962C466.48 107.307 466.174 105.731 465.616 104.247C465.055 102.756 464.247 101.357 463.26 100.001L463.253 99.9912C462.18 98.5471 460.872 97.1271 459.359 95.79C461.365 95.5965 463.262 95.225 464.975 94.6854L464.985 94.6807C466.588 94.1635 468.067 93.5037 469.396 92.6248C470.726 91.7457 471.903 90.6459 472.878 89.3025L472.877 89.3041C473.85 87.9688 474.537 86.5166 474.963 84.9877C475.392 83.4555 475.566 81.8529 475.566 80.1766V80.1365V80.1221C475.552 78.3273 475.331 76.4092 474.894 74.4463C476.631 75.4629 478.383 76.2619 480.088 76.8303L480.099 76.835C481.905 77.4242 483.69 77.7699 485.487 77.7699C486.875 77.7715 488.263 77.5602 489.636 77.1104C491.215 76.6027 492.624 75.8264 493.87 74.8369C495.117 73.8459 496.202 72.6467 497.193 71.2857L497.198 71.2762C498.247 69.816 499.194 68.1363 500 66.2906C500.804 68.1365 501.754 69.8162 502.797 71.2762L502.808 71.2857C503.794 72.6467 504.883 73.8459 506.13 74.8369C507.376 75.8264 508.786 76.6027 510.362 77.1104C511.735 77.5604 513.123 77.7717 514.513 77.7699C516.311 77.7699 518.095 77.4242 519.902 76.835L519.912 76.8303C521.617 76.2619 523.37 75.4629 525.104 74.4463C524.67 76.4092 524.448 78.3273 524.433 80.1221V80.1766C524.433 81.8529 524.608 83.4588 525.035 84.9877C525.464 86.5166 526.15 87.9705 527.125 89.3041L527.123 89.3025C528.097 90.6457 529.275 91.7473 530.604 92.6248C531.934 93.5037 533.412 94.1633 535.013 94.6807L535.025 94.6854C536.739 95.225 538.635 95.5965 540.639 95.7885C539.13 97.1254 537.822 98.5471 536.749 99.9912L536.741 100.003C535.75 101.359 534.943 102.758 534.382 104.248C533.825 105.728 533.523 107.297 533.52 108.944V108.973C533.52 108.976 533.518 108.98 533.518 108.987V109.007V109.015V109.018V109.026C533.52 110.685 533.824 112.263 534.382 113.749C534.943 115.241 535.75 116.641 536.741 117.995L536.749 118.008C537.821 119.454 539.129 120.874 540.639 122.209C538.635 122.405 536.739 122.776 535.025 123.316Z" fill="#25333C"/>
<path d="M535.025 123.316L535.013 123.321C533.411 123.838 531.934 124.496 530.604 125.375C529.275 126.254 528.098 127.354 527.123 128.697L527.125 128.695C526.15 130.029 525.464 131.483 525.035 133.013C524.608 134.543 524.433 136.147 524.433 137.825V137.874V137.879C524.448 139.677 524.671 141.59 525.104 143.555C523.37 142.536 521.617 141.736 519.912 141.169L519.902 141.166C518.096 140.577 516.311 140.229 514.513 140.229C513.123 140.229 511.735 140.439 510.362 140.889C508.786 141.396 507.376 142.171 506.13 143.161C504.883 144.155 503.794 145.353 502.808 146.713L502.797 146.723C501.754 148.185 500.804 149.863 500 151.709C499.198 149.863 498.247 148.185 497.2 146.723L497.193 146.713C496.202 145.353 495.117 144.154 493.87 143.161C492.622 142.171 491.213 141.395 489.633 140.887C488.261 140.439 486.873 140.229 485.485 140.229C483.69 140.231 481.905 140.577 480.099 141.166L480.088 141.169C478.383 141.736 476.631 142.536 474.894 143.554C475.331 141.59 475.552 139.677 475.566 137.879V137.845V137.837V137.824C475.566 136.148 475.392 134.544 474.963 133.013C474.537 131.484 473.85 130.029 472.877 128.695L472.878 128.696C471.903 127.353 470.726 126.253 469.396 125.374C468.067 124.495 466.588 123.837 464.985 123.32L464.975 123.315C463.262 122.776 461.365 122.404 459.36 122.209C460.872 120.874 462.183 119.454 463.253 118.008L463.26 117.995C464.247 116.641 465.055 115.243 465.616 113.752C466.176 112.263 466.483 110.683 466.482 109.02V109.001V108.991V108.98V108.962C466.48 107.307 466.174 105.731 465.616 104.247C465.055 102.756 464.247 101.357 463.26 100.001L463.253 99.9912C462.18 98.5471 460.872 97.1271 459.359 95.79C461.365 95.5965 463.262 95.225 464.975 94.6854L464.985 94.6807C466.588 94.1635 468.067 93.5037 469.396 92.6248C470.726 91.7457 471.903 90.6459 472.878 89.3025L472.877 89.3041C473.85 87.9688 474.537 86.5166 474.963 84.9877C475.392 83.4555 475.566 81.8529 475.566 80.1766V80.1365V80.1221C475.552 78.3273 475.331 76.4092 474.894 74.4463C476.631 75.4629 478.383 76.2619 480.088 76.8303L480.099 76.835C481.905 77.4242 483.69 77.7699 485.487 77.7699C486.875 77.7715 488.263 77.5602 489.636 77.1104C491.215 76.6027 492.624 75.8264 493.87 74.8369C495.117 73.8459 496.202 72.6467 497.193 71.2857L497.198 71.2762C498.247 69.816 499.194 68.1363 500 66.2906C500.804 68.1365 501.754 69.8162 502.797 71.2762L502.808 71.2857C503.794 72.6467 504.883 73.8459 506.13 74.8369C507.376 75.8264 508.786 76.6027 510.362 77.1104C511.735 77.5604 513.123 77.7717 514.513 77.7699C516.311 77.7699 518.095 77.4242 519.902 76.835L519.912 76.8303C521.617 76.2619 523.37 75.4629 525.104 74.4463C524.67 76.4092 524.448 78.3273 524.433 80.1221V80.1766C524.433 81.8529 524.608 83.4588 525.035 84.9877C525.464 86.5166 526.15 87.9705 527.125 89.3041L527.123 89.3025C528.097 90.6457 529.275 91.7473 530.604 92.6248C531.934 93.5037 533.412 94.1633 535.013 94.6807L535.025 94.6854C536.739 95.225 538.635 95.5965 540.639 95.7885C539.13 97.1254 537.822 98.5471 536.749 99.9912L536.741 100.003C535.75 101.359 534.943 102.758 534.382 104.248C533.825 105.728 533.523 107.297 533.52 108.944V108.973C533.52 108.976 533.518 108.98 533.518 108.987V109.007V109.015V109.018V109.026C533.52 110.685 533.824 112.263 534.382 113.749C534.943 115.241 535.75 116.641 536.741 117.995L536.749 118.008C537.821 119.454 539.129 120.874 540.639 122.209C538.635 122.405 536.739 122.776 535.025 123.316Z" fill="#FFDB56"/>
<path fill-rule="evenodd" clip-rule="evenodd" d="M500 82.2905C485.248 82.2905 473.291 94.2487 473.29 109.001C473.291 123.751 485.248 135.711 500 135.711C514.754 135.711 526.71 123.751 526.71 109.001C526.71 94.2487 514.754 82.2905 500 82.2905ZM500 132C506.358 132 512.096 129.427 516.263 125.263C520.426 121.098 522.999 115.357 522.999 109.001C522.999 102.645 520.426 96.903 516.263 92.7388C512.096 88.5729 506.358 86.0015 500 86.0015C493.642 86.0015 487.904 88.5729 483.738 92.7388C479.574 96.9063 477.003 102.645 477.001 109.001C477.003 115.357 479.574 121.098 483.738 125.263C487.904 129.427 493.642 132 500 132Z" fill="#25333C"/>
<path fill-rule="evenodd" clip-rule="evenodd" d="M500 82.2905C485.248 82.2905 473.291 94.2487 473.29 109.001C473.291 123.751 485.248 135.711 500 135.711C514.754 135.711 526.71 123.751 526.71 109.001C526.71 94.2487 514.754 82.2905 500 82.2905ZM500 132C506.358 132 512.096 129.427 516.263 125.263C520.426 121.098 522.999 115.357 522.999 109.001C522.999 102.645 520.426 96.903 516.263 92.7388C512.096 88.5729 506.358 86.0015 500 86.0015C493.642 86.0015 487.904 88.5729 483.738 92.7388C479.574 96.9063 477.003 102.645 477.001 109.001C477.003 115.357 479.574 121.098 483.738 125.263C487.904 129.427 493.642 132 500 132Z" fill="black" fill-opacity="0.2"/>
<path d="M516.263 125.263C512.096 129.427 506.358 132 500 132C493.642 132 487.904 129.427 483.738 125.263C479.574 121.098 477.003 115.357 477.001 109.001C477.003 102.645 479.574 96.9063 483.738 92.7388C487.904 88.5729 493.642 86.0015 500 86.0015C506.358 86.0015 512.096 88.5729 516.263 92.7388C520.426 96.903 522.999 102.645 522.999 109.001C522.999 115.357 520.426 121.098 516.263 125.263Z" fill="#25333C"/>
<path d="M516.263 125.263C512.096 129.427 506.358 132 500 132C493.642 132 487.904 129.427 483.738 125.263C479.574 121.098 477.003 115.357 477.001 109.001C477.003 102.645 479.574 96.9063 483.738 92.7388C487.904 88.5729 493.642 86.0015 500 86.0015C506.358 86.0015 512.096 88.5729 516.263 92.7388C520.426 96.903 522.999 102.645 522.999 109.001C522.999 115.357 520.426 121.098 516.263 125.263Z" fill="#FFDB56"/>
<path d="M46.805 122.408C43.7455 120.546 41.2847 118.226 39.5812 115.927C38.731 114.763 38.0953 113.641 37.6759 112.513C37.2533 111.386 37.034 110.254 37.034 109.015V109.005V108.988C37.034 107.746 37.2533 106.612 37.6759 105.485C38.0953 104.361 38.731 103.237 39.5812 102.075C41.2847 99.7756 43.7455 97.4541 46.805 95.592C47.5017 95.1678 47.8154 94.3193 47.5656 93.5475C47.316 92.7742 46.5601 92.2746 45.7517 92.3402C45.0009 92.3996 44.2611 92.4285 43.531 92.4268C40.7933 92.4283 38.2412 92.0119 36.0845 91.3316C34.7156 90.8914 33.5453 90.3533 32.5429 89.6922C31.539 89.0277 30.697 88.2385 29.9668 87.2377L29.9652 87.2361C29.2382 86.2338 28.7467 85.1947 28.4232 84.0404C28.0982 82.8861 27.9494 81.6084 27.9494 80.1771V80.1564V80.15C27.9685 77.2906 28.5963 73.9586 29.9826 70.6494C30.2998 69.8969 30.0578 69.0322 29.3966 68.5488C28.7338 68.0686 27.8373 68.1053 27.2177 68.6367C24.4943 70.976 21.5179 72.593 18.8025 73.4961L18.8136 73.493C17.267 73.9973 15.8517 74.2551 14.5133 74.2551C13.4742 74.2535 12.4752 74.1045 11.4504 73.7699L11.447 73.7684C10.2736 73.3873 9.26149 72.8334 8.31852 72.0842C7.37712 71.3381 6.5029 70.3902 5.65446 69.2264C3.9863 66.9002 2.53239 63.8404 1.7111 60.3533C1.52419 59.5588 0.81657 59 -3.05176e-05 59C-0.818195 59 -1.52425 59.5588 -1.71136 60.3529C-2.53108 63.84 -3.98811 66.8998 -5.65472 69.226C-6.50335 70.39 -7.37757 71.3377 -8.31878 72.0838C-9.2635 72.833 -10.2721 73.3869 -11.4457 73.768L-11.4491 73.7695C-12.4737 74.1041 -13.4758 74.2531 -14.5133 74.2547C-15.8502 74.2547 -17.2641 73.9953 -18.8139 73.4926L-18.801 73.4957C-21.5211 72.5926 -24.4975 70.9756 -27.2145 68.6363C-27.8358 68.1049 -28.7338 68.0682 -29.3951 68.5484C-30.0563 69.0318 -30.2979 69.8965 -29.9811 70.649C-28.5977 73.9584 -27.9701 77.2869 -27.9479 80.1496V80.1768C-27.9479 81.608 -28.0998 82.8857 -28.4217 84.04C-28.7467 85.1943 -29.2397 86.2334 -29.9666 87.2357L-29.9682 87.2373C-30.6967 88.2381 -31.5371 89.0273 -32.541 89.6918C-33.5432 90.3531 -34.7153 90.891 -36.084 91.3312C-38.2407 92.0117 -40.791 92.4281 -43.5305 92.4281C-44.2574 92.4281 -44.9987 92.3992 -45.7496 92.3398C-46.5598 92.2742 -47.3139 92.7738 -47.5635 93.5471C-47.8164 94.3187 -47.501 95.1674 -46.803 95.5916C-43.7449 97.4537 -41.2824 99.7752 -39.5807 102.074C-38.7321 103.237 -38.0981 104.361 -37.6739 105.484C-37.2512 106.61 -37.035 107.74 -37.0319 108.98V109.001V109.02C-37.035 110.259 -37.2512 111.388 -37.6739 112.515C-38.0981 113.64 -38.7321 114.763 -39.5807 115.927L-39.5742 115.915C-41.276 118.216 -43.7403 120.544 -46.803 122.408C-47.501 122.83 -47.8164 123.681 -47.5635 124.452C-47.3139 125.225 -46.558 125.727 -45.7479 125.661C-44.9985 125.6 -44.2573 125.571 -43.5287 125.571C-40.7908 125.571 -38.2405 125.989 -36.0838 126.668C-34.7151 127.11 -33.543 127.645 -32.5408 128.308C-31.5369 128.974 -30.6963 129.761 -29.968 130.765H-29.9664C-29.2395 131.764 -28.7465 132.804 -28.4215 133.959C-28.0996 135.115 -27.9477 136.391 -27.9477 137.824V137.851C-27.9699 140.714 -28.5977 144.041 -29.9809 147.351C-30.2977 148.104 -30.0561 148.969 -29.3949 149.451C-28.7336 149.93 -27.8356 149.896 -27.2143 149.363C-24.4989 147.029 -21.5242 145.408 -18.8088 144.505C-17.2606 144.006 -15.85 143.743 -14.5149 143.745C-13.4758 143.745 -12.4752 143.897 -11.4506 144.232L-11.4457 144.233C-10.2721 144.613 -9.2635 145.167 -8.31721 145.914C-7.37424 146.665 -6.49846 147.615 -5.65003 148.78L-5.65804 148.772C-3.98967 151.097 -2.53108 154.158 -1.71136 157.648C-1.52425 158.441 -0.817997 159 -3.05176e-05 159C0.81657 159 1.52419 158.441 1.71169 157.648C2.53278 154.16 3.98669 151.099 5.65505 148.774C6.50368 147.612 7.3777 146.664 8.31911 145.914C9.26208 145.167 10.274 144.613 11.4476 144.233L11.4509 144.232C12.4756 143.897 13.4779 143.745 14.5138 143.744C15.8523 143.744 17.2629 144.006 18.8095 144.506C21.5248 145.409 24.4965 147.029 27.215 149.363C27.8379 149.896 28.7345 149.93 29.3972 149.451C30.0584 148.969 30.3004 148.105 29.9832 147.351C28.5966 144.041 27.9691 140.713 27.95 137.852V137.824C27.95 136.392 28.0988 135.115 28.4238 133.96C28.7472 132.804 29.2388 131.764 29.9658 130.765H29.9673C30.6974 129.762 31.5396 128.974 32.5435 128.308C33.5459 127.645 34.7162 127.11 36.0851 126.668C38.2418 125.99 40.7939 125.572 43.5316 125.572C44.2601 125.572 45.0015 125.601 45.7507 125.661C46.5609 125.729 47.3166 125.226 47.5664 124.453C47.8154 123.681 47.5015 122.831 46.805 122.408ZM35.0246 123.316L35.0132 123.321C33.4105 123.838 31.9343 124.496 30.6039 125.375C29.275 126.254 28.0982 127.354 27.1232 128.697L27.1248 128.695C26.1498 130.029 25.4644 131.483 25.0353 133.013C24.608 134.543 24.4334 136.147 24.4334 137.825V137.874V137.879C24.4478 139.677 24.6705 141.59 25.1041 143.555C23.3701 142.536 21.6172 141.736 19.9119 141.169L19.9023 141.166C18.0963 140.577 16.3111 140.229 14.5133 140.229C13.1234 140.229 11.7353 140.439 10.3617 140.889C8.7863 141.396 7.37575 142.171 6.13024 143.161C4.88298 144.155 3.79431 145.353 2.80798 146.713L2.79684 146.723C1.75446 148.185 0.80368 149.863 -0.000225067 151.709C-0.802177 149.863 -1.75335 148.185 -2.80042 146.723L-2.80687 146.713C-3.79788 145.353 -4.88343 144.154 -6.1305 143.161C-7.37776 142.171 -8.78675 141.395 -10.3668 140.887C-11.7389 140.439 -13.127 140.229 -14.5153 140.229C-16.31 140.231 -18.0953 140.577 -19.9012 141.166L-19.9123 141.169C-21.6174 141.736 -23.369 142.536 -25.1061 143.554C-24.669 141.59 -24.4481 139.677 -24.4336 137.879V137.845V137.837V137.824C-24.4336 136.148 -24.608 134.544 -25.0373 133.013C-25.4631 131.484 -26.15 130.029 -27.1233 128.695L-27.1217 128.696C-28.0969 127.353 -29.2737 126.253 -30.6041 125.374C-31.933 124.495 -33.4123 123.837 -35.0151 123.32L-35.0248 123.315C-36.7379 122.776 -38.6352 122.404 -40.6397 122.209C-39.1283 120.874 -37.817 119.454 -36.7475 118.008L-36.7397 117.995C-35.7533 116.641 -34.9448 115.243 -34.3844 113.752C-33.824 112.263 -33.5166 110.683 -33.5184 109.02V109.001V108.991V108.98V108.962C-33.5199 107.307 -33.8258 105.731 -34.3844 104.247C-34.9448 102.756 -35.7533 101.357 -36.7397 100.001L-36.7475 99.9912C-37.8201 98.5471 -39.1283 97.1271 -40.6412 95.79C-38.6352 95.5965 -36.7381 95.225 -35.0248 94.6854L-35.0151 94.6807C-33.4125 94.1635 -31.933 93.5037 -30.6041 92.6248C-29.2737 91.7457 -28.0969 90.6459 -27.1217 89.3025L-27.1233 89.3041C-26.15 87.9688 -25.4631 86.5166 -25.0373 84.9877C-24.608 83.4555 -24.4336 81.8529 -24.4336 80.1766V80.1365V80.1221C-24.4481 78.3273 -24.669 76.4092 -25.1061 74.4463C-23.369 75.4629 -21.6172 76.2619 -19.9123 76.8303L-19.9012 76.835C-18.0951 77.4242 -16.31 77.7699 -14.5135 77.7699C-13.1254 77.7715 -11.7373 77.5602 -10.3637 77.1104C-8.78518 76.6027 -7.3762 75.8264 -6.1305 74.8369C-4.88343 73.8459 -3.79788 72.6467 -2.80687 71.2857L-2.80218 71.2762C-1.75335 69.816 -0.805695 68.1363 -0.000225067 66.2906C0.80368 68.1365 1.75446 69.8162 2.79684 71.2762L2.80798 71.2857C3.79431 72.6467 4.88298 73.8459 6.13024 74.8369C7.37575 75.8264 8.7863 76.6027 10.3617 77.1104C11.7353 77.5604 13.1234 77.7717 14.5133 77.7699C16.3111 77.7699 18.0947 77.4242 19.9023 76.835L19.9119 76.8303C21.6172 76.2619 23.3701 75.4629 25.1041 74.4463C24.6703 76.4092 24.4476 78.3273 24.4334 80.1221V80.1766C24.4334 81.8529 24.608 83.4588 25.0353 84.9877C25.4644 86.5166 26.1498 87.9705 27.1248 89.3041L27.1232 89.3025C28.0966 90.6457 29.275 91.7473 30.6039 92.6248C31.9343 93.5037 33.4121 94.1633 35.0132 94.6807L35.0246 94.6854C36.7392 95.225 38.6347 95.5965 40.6394 95.7885C39.1297 97.1254 37.8216 98.5471 36.7488 99.9912L36.7408 100.003C35.7498 101.359 34.9427 102.758 34.3824 104.248C33.8254 105.728 33.5226 107.297 33.5195 108.944V108.973C33.5195 108.976 33.5179 108.98 33.5179 108.987V109.007V109.015V109.018V109.026C33.5195 110.685 33.8238 112.263 34.3824 113.749C34.9427 115.241 35.7498 116.641 36.7408 117.995L36.7488 118.008C37.8214 119.454 39.1295 120.874 40.6394 122.209C38.6347 122.405 36.7392 122.776 35.0246 123.316Z" fill="#25333C"/>
<path d="M35.0246 123.316L35.0132 123.321C33.4105 123.838 31.9343 124.496 30.6039 125.375C29.275 126.254 28.0982 127.354 27.1232 128.697L27.1248 128.695C26.1498 130.029 25.4644 131.483 25.0353 133.013C24.608 134.543 24.4334 136.147 24.4334 137.825V137.874V137.879C24.4478 139.677 24.6705 141.59 25.1041 143.555C23.3701 142.536 21.6172 141.736 19.9119 141.169L19.9023 141.166C18.0963 140.577 16.3111 140.229 14.5133 140.229C13.1234 140.229 11.7353 140.439 10.3617 140.889C8.7863 141.396 7.37575 142.171 6.13024 143.161C4.88298 144.155 3.79431 145.353 2.80798 146.713L2.79684 146.723C1.75446 148.185 0.80368 149.863 -0.000225067 151.709C-0.802177 149.863 -1.75335 148.185 -2.80042 146.723L-2.80687 146.713C-3.79788 145.353 -4.88343 144.154 -6.1305 143.161C-7.37776 142.171 -8.78675 141.395 -10.3668 140.887C-11.7389 140.439 -13.127 140.229 -14.5153 140.229C-16.31 140.231 -18.0953 140.577 -19.9012 141.166L-19.9123 141.169C-21.6174 141.736 -23.369 142.536 -25.1061 143.554C-24.669 141.59 -24.4481 139.677 -24.4336 137.879V137.845V137.837V137.824C-24.4336 136.148 -24.608 134.544 -25.0373 133.013C-25.4631 131.484 -26.15 130.029 -27.1233 128.695L-27.1217 128.696C-28.0969 127.353 -29.2737 126.253 -30.6041 125.374C-31.933 124.495 -33.4123 123.837 -35.0151 123.32L-35.0248 123.315C-36.7379 122.776 -38.6352 122.404 -40.6397 122.209C-39.1283 120.874 -37.817 119.454 -36.7475 118.008L-36.7397 117.995C-35.7533 116.641 -34.9448 115.243 -34.3844 113.752C-33.824 112.263 -33.5166 110.683 -33.5184 109.02V109.001V108.991V108.98V108.962C-33.5199 107.307 -33.8258 105.731 -34.3844 104.247C-34.9448 102.756 -35.7533 101.357 -36.7397 100.001L-36.7475 99.9912C-37.8201 98.5471 -39.1283 97.1271 -40.6412 95.79C-38.6352 95.5965 -36.7381 95.225 -35.0248 94.6854L-35.0151 94.6807C-33.4125 94.1635 -31.933 93.5037 -30.6041 92.6248C-29.2737 91.7457 -28.0969 90.6459 -27.1217 89.3025L-27.1233 89.3041C-26.15 87.9688 -25.4631 86.5166 -25.0373 84.9877C-24.608 83.4555 -24.4336 81.8529 -24.4336 80.1766V80.1365V80.1221C-24.4481 78.3273 -24.669 76.4092 -25.1061 74.4463C-23.369 75.4629 -21.6172 76.2619 -19.9123 76.8303L-19.9012 76.835C-18.0951 77.4242 -16.31 77.7699 -14.5135 77.7699C-13.1254 77.7715 -11.7373 77.5602 -10.3637 77.1104C-8.78518 76.6027 -7.3762 75.8264 -6.1305 74.8369C-4.88343 73.8459 -3.79788 72.6467 -2.80687 71.2857L-2.80218 71.2762C-1.75335 69.816 -0.805695 68.1363 -0.000225067 66.2906C0.80368 68.1365 1.75446 69.8162 2.79684 71.2762L2.80798 71.2857C3.79431 72.6467 4.88298 73.8459 6.13024 74.8369C7.37575 75.8264 8.7863 76.6027 10.3617 77.1104C11.7353 77.5604 13.1234 77.7717 14.5133 77.7699C16.3111 77.7699 18.0947 77.4242 19.9023 76.835L19.9119 76.8303C21.6172 76.2619 23.3701 75.4629 25.1041 74.4463C24.6703 76.4092 24.4476 78.3273 24.4334 80.1221V80.1766C24.4334 81.8529 24.608 83.4588 25.0353 84.9877C25.4644 86.5166 26.1498 87.9705 27.1248 89.3041L27.1232 89.3025C28.0966 90.6457 29.275 91.7473 30.6039 92.6248C31.9343 93.5037 33.4121 94.1633 35.0132 94.6807L35.0246 94.6854C36.7392 95.225 38.6347 95.5965 40.6394 95.7885C39.1297 97.1254 37.8216 98.5471 36.7488 99.9912L36.7408 100.003C35.7498 101.359 34.9427 102.758 34.3824 104.248C33.8254 105.728 33.5226 107.297 33.5195 108.944V108.973C33.5195 108.976 33.5179 108.98 33.5179 108.987V109.007V109.015V109.018V109.026C33.5195 110.685 33.8238 112.263 34.3824 113.749C34.9427 115.241 35.7498 116.641 36.7408 117.995L36.7488 118.008C37.8214 119.454 39.1295 120.874 40.6394 122.209C38.6347 122.405 36.7392 122.776 35.0246 123.316Z" fill="#FFDB56"/>
<path fill-rule="evenodd" clip-rule="evenodd" d="M-3.62396e-05 82.2905C-14.752 82.2905 -26.7086 94.2487 -26.7104 109.001C-26.7088 123.751 -14.7522 135.711 -3.62396e-05 135.711C14.7537 135.711 26.7103 123.751 26.7103 109.001C26.7101 94.2487 14.7535 82.2905 -3.62396e-05 82.2905ZM-3.62396e-05 132C6.35758 132 12.0957 129.427 16.2632 125.263C20.4261 121.098 22.999 115.357 22.999 109.001C22.999 102.645 20.4263 96.903 16.2634 92.7388C12.0959 88.5729 6.35758 86.0015 -3.62396e-05 86.0015C-6.35765 86.0015 -12.0957 88.5729 -16.2618 92.7388C-20.4262 96.9063 -22.9975 102.645 -22.9991 109.001C-22.9973 115.357 -20.4262 121.098 -16.2618 125.263C-12.0959 129.427 -6.35765 132 -3.62396e-05 132Z" fill="#25333C"/>
<path fill-rule="evenodd" clip-rule="evenodd" d="M-3.62396e-05 82.2905C-14.752 82.2905 -26.7086 94.2487 -26.7104 109.001C-26.7088 123.751 -14.7522 135.711 -3.62396e-05 135.711C14.7537 135.711 26.7103 123.751 26.7103 109.001C26.7101 94.2487 14.7535 82.2905 -3.62396e-05 82.2905ZM-3.62396e-05 132C6.35758 132 12.0957 129.427 16.2632 125.263C20.4261 121.098 22.999 115.357 22.999 109.001C22.999 102.645 20.4263 96.903 16.2634 92.7388C12.0959 88.5729 6.35758 86.0015 -3.62396e-05 86.0015C-6.35765 86.0015 -12.0957 88.5729 -16.2618 92.7388C-20.4262 96.9063 -22.9975 102.645 -22.9991 109.001C-22.9973 115.357 -20.4262 121.098 -16.2618 125.263C-12.0959 129.427 -6.35765 132 -3.62396e-05 132Z" fill="black" fill-opacity="0.2"/>
<path d="M16.2632 125.263C12.0957 129.427 6.35758 132 -3.62396e-05 132C-6.35765 132 -12.0959 129.427 -16.2618 125.263C-20.4262 121.098 -22.9973 115.357 -22.9991 109.001C-22.9975 102.645 -20.4262 96.9063 -16.2618 92.7388C-12.0957 88.5729 -6.35765 86.0015 -3.62396e-05 86.0015C6.35758 86.0015 12.0959 88.5729 16.2634 92.7388C20.4263 96.903 22.999 102.645 22.999 109.001C22.999 115.357 20.4261 121.098 16.2632 125.263Z" fill="#25333C"/>
<path d="M16.2632 125.263C12.0957 129.427 6.35758 132 -3.62396e-05 132C-6.35765 132 -12.0959 129.427 -16.2618 125.263C-20.4262 121.098 -22.9973 115.357 -22.9991 109.001C-22.9975 102.645 -20.4262 96.9063 -16.2618 92.7388C-12.0957 88.5729 -6.35765 86.0015 -3.62396e-05 86.0015C6.35758 86.0015 12.0959 88.5729 16.2634 92.7388C20.4263 96.903 22.999 102.645 22.999 109.001C22.999 115.357 20.4261 121.098 16.2632 125.263Z" fill="#FFDB56"/>
<path d="M296.805 263.408C293.745 261.546 291.285 259.226 289.581 256.927C288.731 255.763 288.095 254.641 287.676 253.513C287.253 252.386 287.034 251.254 287.034 250.015V250.005V249.988C287.034 248.746 287.253 247.612 287.676 246.485C288.095 245.361 288.731 244.237 289.581 243.075C291.285 240.776 293.745 238.454 296.805 236.592C297.502 236.168 297.815 235.319 297.566 234.547C297.316 233.774 296.56 233.275 295.752 233.34C295.001 233.4 294.261 233.429 293.531 233.427C290.793 233.428 288.241 233.012 286.085 232.332C284.716 231.891 283.545 231.353 282.543 230.692C281.539 230.028 280.697 229.238 279.967 228.238L279.965 228.236C279.238 227.234 278.747 226.195 278.423 225.04C278.098 223.886 277.949 222.608 277.949 221.177V221.156V221.15C277.969 218.291 278.596 214.959 279.983 211.649C280.3 210.897 280.058 210.032 279.397 209.549C278.734 209.069 277.837 209.105 277.218 209.637C274.494 211.976 271.518 213.593 268.803 214.496L268.814 214.493C267.267 214.997 265.852 215.255 264.513 215.255C263.474 215.254 262.475 215.104 261.45 214.77L261.447 214.768C260.274 214.387 259.261 213.833 258.319 213.084C257.377 212.338 256.503 211.39 255.654 210.226C253.986 207.9 252.532 204.84 251.711 201.353C251.524 200.559 250.817 200 250 200C249.182 200 248.476 200.559 248.289 201.353C247.469 204.84 246.012 207.9 244.345 210.226C243.497 211.39 242.622 212.338 241.681 213.084C240.736 213.833 239.728 214.387 238.554 214.768L238.551 214.77C237.526 215.104 236.524 215.253 235.487 215.255C234.15 215.255 232.736 214.995 231.186 214.493L231.199 214.496C228.479 213.593 225.503 211.976 222.786 209.636C222.164 209.105 221.266 209.068 220.605 209.548C219.944 210.032 219.702 210.896 220.019 211.649C221.402 214.958 222.03 218.287 222.052 221.15V221.177C222.052 222.608 221.9 223.886 221.578 225.04C221.253 226.194 220.76 227.233 220.033 228.236L220.032 228.237C219.303 229.238 218.463 230.027 217.459 230.692C216.457 231.353 215.285 231.891 213.916 232.331C211.759 233.012 209.209 233.428 206.47 233.428C205.743 233.428 205.001 233.399 204.25 233.34C203.44 233.274 202.686 233.774 202.436 234.547C202.184 235.319 202.499 236.167 203.197 236.592C206.255 238.454 208.718 240.775 210.419 243.074C211.268 244.237 211.902 245.361 212.326 246.484C212.749 247.61 212.965 248.74 212.968 249.98V250.001V250.02C212.965 251.259 212.749 252.388 212.326 253.515C211.902 254.64 211.268 255.763 210.419 256.927L210.426 256.915C208.724 259.216 206.26 261.544 203.197 263.408C202.499 263.83 202.184 264.681 202.436 265.452C202.686 266.225 203.442 266.727 204.252 266.661C205.002 266.6 205.743 266.571 206.471 266.571C209.209 266.571 211.76 266.989 213.916 267.668C215.285 268.11 216.457 268.645 217.459 269.308C218.463 269.974 219.304 270.761 220.032 271.765H220.034C220.761 272.764 221.253 273.804 221.578 274.959C221.9 276.115 222.052 277.391 222.052 278.824V278.851C222.03 281.714 221.402 285.041 220.019 288.351C219.702 289.104 219.944 289.969 220.605 290.451C221.266 290.93 222.164 290.896 222.786 290.363C225.501 288.029 228.476 286.408 231.191 285.505C232.739 285.006 234.15 284.743 235.485 284.745C236.524 284.745 237.525 284.897 238.549 285.232L238.554 285.233C239.728 285.613 240.736 286.167 241.683 286.914C242.626 287.665 243.502 288.615 244.35 289.78L244.342 289.772C246.01 292.097 247.469 295.158 248.289 298.648C248.476 299.441 249.182 300 250 300C250.817 300 251.524 299.441 251.712 298.648C252.533 295.16 253.987 292.099 255.655 289.774C256.504 288.612 257.378 287.664 258.319 286.914C259.262 286.167 260.274 285.613 261.448 285.233L261.451 285.232C262.476 284.897 263.478 284.745 264.514 284.744C265.852 284.744 267.263 285.006 268.81 285.506C271.525 286.409 274.496 288.029 277.215 290.363C277.838 290.896 278.735 290.93 279.397 290.451C280.058 289.969 280.3 289.105 279.983 288.351C278.597 285.041 277.969 281.713 277.95 278.852V278.824C277.95 277.392 278.099 276.115 278.424 274.96C278.747 273.804 279.239 272.764 279.966 271.765H279.967C280.697 270.762 281.54 269.974 282.544 269.308C283.546 268.645 284.716 268.11 286.085 267.668C288.242 266.99 290.794 266.572 293.532 266.572C294.26 266.572 295.002 266.601 295.751 266.661C296.561 266.729 297.317 266.226 297.566 265.453C297.815 264.681 297.502 263.831 296.805 263.408ZM285.025 264.316L285.013 264.321C283.411 264.838 281.934 265.496 280.604 266.375C279.275 267.254 278.098 268.354 277.123 269.697L277.125 269.695C276.15 271.029 275.464 272.483 275.035 274.013C274.608 275.543 274.433 277.147 274.433 278.825V278.874V278.879C274.448 280.677 274.67 282.59 275.104 284.555C273.37 283.536 271.617 282.736 269.912 282.169L269.902 282.166C268.096 281.577 266.311 281.229 264.513 281.229C263.123 281.229 261.735 281.439 260.362 281.889C258.786 282.396 257.376 283.171 256.13 284.161C254.883 285.155 253.794 286.353 252.808 287.713L252.797 287.723C251.754 289.185 250.804 290.863 250 292.709C249.198 290.863 248.247 289.185 247.2 287.723L247.193 287.713C246.202 286.353 245.117 285.154 243.87 284.161C242.622 283.171 241.213 282.395 239.633 281.887C238.261 281.439 236.873 281.229 235.485 281.229C233.69 281.231 231.905 281.577 230.099 282.166L230.088 282.169C228.383 282.736 226.631 283.536 224.894 284.554C225.331 282.59 225.552 280.677 225.566 278.879V278.845V278.837V278.824C225.566 277.148 225.392 275.544 224.963 274.013C224.537 272.484 223.85 271.029 222.877 269.695L222.878 269.696C221.903 268.353 220.726 267.253 219.396 266.374C218.067 265.495 216.588 264.837 214.985 264.32L214.975 264.315C213.262 263.776 211.365 263.404 209.36 263.209C210.872 261.874 212.183 260.454 213.253 259.008L213.26 258.995C214.247 257.641 215.055 256.243 215.616 254.752C216.176 253.263 216.483 251.683 216.482 250.02V250.001V249.991V249.98V249.962C216.48 248.307 216.174 246.731 215.616 245.247C215.055 243.756 214.247 242.357 213.26 241.001L213.253 240.991C212.18 239.547 210.872 238.127 209.359 236.79C211.365 236.596 213.262 236.225 214.975 235.685L214.985 235.681C216.587 235.163 218.067 234.504 219.396 233.625C220.726 232.746 221.903 231.646 222.878 230.303L222.877 230.304C223.85 228.969 224.537 227.517 224.963 225.988C225.392 224.455 225.566 222.853 225.566 221.177V221.137V221.122C225.552 219.327 225.331 217.409 224.894 215.446C226.631 216.463 228.383 217.262 230.088 217.83L230.099 217.835C231.905 218.424 233.69 218.77 235.486 218.77C236.875 218.771 238.263 218.56 239.636 218.11C241.215 217.603 242.624 216.826 243.87 215.837C245.117 214.846 246.202 213.647 247.193 212.286L247.198 212.276C248.247 210.816 249.194 209.136 250 207.291C250.804 209.137 251.754 210.816 252.797 212.276L252.808 212.286C253.794 213.647 254.883 214.846 256.13 215.837C257.376 216.826 258.786 217.603 260.362 218.11C261.735 218.56 263.123 218.772 264.513 218.77C266.311 218.77 268.095 218.424 269.902 217.835L269.912 217.83C271.617 217.262 273.37 216.463 275.104 215.446C274.67 217.409 274.448 219.327 274.433 221.122V221.177C274.433 222.853 274.608 224.459 275.035 225.988C275.464 227.517 276.15 228.971 277.125 230.304L277.123 230.303C278.097 231.646 279.275 232.747 280.604 233.625C281.934 234.504 283.412 235.163 285.013 235.681L285.025 235.685C286.739 236.225 288.635 236.596 290.639 236.788C289.13 238.125 287.822 239.547 286.749 240.991L286.741 241.003C285.75 242.359 284.943 243.758 284.382 245.248C283.825 246.728 283.523 248.297 283.519 249.944V249.973C283.519 249.976 283.518 249.98 283.518 249.987V250.007V250.015V250.018V250.026C283.519 251.685 283.824 253.263 284.382 254.749C284.943 256.241 285.75 257.641 286.741 258.995L286.749 259.008C287.821 260.454 289.129 261.874 290.639 263.209C288.635 263.405 286.739 263.776 285.025 264.316Z" fill="#25333C"/>
<path d="M285.025 264.316L285.013 264.321C283.411 264.838 281.934 265.496 280.604 266.375C279.275 267.254 278.098 268.354 277.123 269.697L277.125 269.695C276.15 271.029 275.464 272.483 275.035 274.013C274.608 275.543 274.433 277.147 274.433 278.825V278.874V278.879C274.448 280.677 274.67 282.59 275.104 284.555C273.37 283.536 271.617 282.736 269.912 282.169L269.902 282.166C268.096 281.577 266.311 281.229 264.513 281.229C263.123 281.229 261.735 281.439 260.362 281.889C258.786 282.396 257.376 283.171 256.13 284.161C254.883 285.155 253.794 286.353 252.808 287.713L252.797 287.723C251.754 289.185 250.804 290.863 250 292.709C249.198 290.863 248.247 289.185 247.2 287.723L247.193 287.713C246.202 286.353 245.117 285.154 243.87 284.161C242.622 283.171 241.213 282.395 239.633 281.887C238.261 281.439 236.873 281.229 235.485 281.229C233.69 281.231 231.905 281.577 230.099 282.166L230.088 282.169C228.383 282.736 226.631 283.536 224.894 284.554C225.331 282.59 225.552 280.677 225.566 278.879V278.845V278.837V278.824C225.566 277.148 225.392 275.544 224.963 274.013C224.537 272.484 223.85 271.029 222.877 269.695L222.878 269.696C221.903 268.353 220.726 267.253 219.396 266.374C218.067 265.495 216.588 264.837 214.985 264.32L214.975 264.315C213.262 263.776 211.365 263.404 209.36 263.209C210.872 261.874 212.183 260.454 213.253 259.008L213.26 258.995C214.247 257.641 215.055 256.243 215.616 254.752C216.176 253.263 216.483 251.683 216.482 250.02V250.001V249.991V249.98V249.962C216.48 248.307 216.174 246.731 215.616 245.247C215.055 243.756 214.247 242.357 213.26 241.001L213.253 240.991C212.18 239.547 210.872 238.127 209.359 236.79C211.365 236.596 213.262 236.225 214.975 235.685L214.985 235.681C216.587 235.163 218.067 234.504 219.396 233.625C220.726 232.746 221.903 231.646 222.878 230.303L222.877 230.304C223.85 228.969 224.537 227.517 224.963 225.988C225.392 224.455 225.566 222.853 225.566 221.177V221.137V221.122C225.552 219.327 225.331 217.409 224.894 215.446C226.631 216.463 228.383 217.262 230.088 217.83L230.099 217.835C231.905 218.424 233.69 218.77 235.486 218.77C236.875 218.771 238.263 218.56 239.636 218.11C241.215 217.603 242.624 216.826 243.87 215.837C245.117 214.846 246.202 213.647 247.193 212.286L247.198 212.276C248.247 210.816 249.194 209.136 250 207.291C250.804 209.137 251.754 210.816 252.797 212.276L252.808 212.286C253.794 213.647 254.883 214.846 256.13 215.837C257.376 216.826 258.786 217.603 260.362 218.11C261.735 218.56 263.123 218.772 264.513 218.77C266.311 218.77 268.095 218.424 269.902 217.835L269.912 217.83C271.617 217.262 273.37 216.463 275.104 215.446C274.67 217.409 274.448 219.327 274.433 221.122V221.177C274.433 222.853 274.608 224.459 275.035 225.988C275.464 227.517 276.15 228.971 277.125 230.304L277.123 230.303C278.097 231.646 279.275 232.747 280.604 233.625C281.934 234.504 283.412 235.163 285.013 235.681L285.025 235.685C286.739 236.225 288.635 236.596 290.639 236.788C289.13 238.125 287.822 239.547 286.749 240.991L286.741 241.003C285.75 242.359 284.943 243.758 284.382 245.248C283.825 246.728 283.523 248.297 283.519 249.944V249.973C283.519 249.976 283.518 249.98 283.518 249.987V250.007V250.015V250.018V250.026C283.519 251.685 283.824 253.263 284.382 254.749C284.943 256.241 285.75 257.641 286.741 258.995L286.749 259.008C287.821 260.454 289.129 261.874 290.639 263.209C288.635 263.405 286.739 263.776 285.025 264.316Z" fill="#FFDB56"/>
<path fill-rule="evenodd" clip-rule="evenodd" d="M250 223.291C235.248 223.291 223.291 235.249 223.29 250.001C223.291 264.751 235.248 276.711 250 276.711C264.754 276.711 276.71 264.751 276.71 250.001C276.71 235.249 264.753 223.291 250 223.291ZM250 273C256.358 273 262.096 270.427 266.263 266.263C270.426 262.098 272.999 256.357 272.999 250.001C272.999 243.645 270.426 237.903 266.263 233.739C262.096 229.573 256.358 227.001 250 227.001C243.642 227.001 237.904 229.573 233.738 233.739C229.574 237.906 227.003 243.645 227.001 250.001C227.003 256.357 229.574 262.098 233.738 266.263C237.904 270.427 243.642 273 250 273Z" fill="#25333C"/>
<path fill-rule="evenodd" clip-rule="evenodd" d="M250 223.291C235.248 223.291 223.291 235.249 223.29 250.001C223.291 264.751 235.248 276.711 250 276.711C264.754 276.711 276.71 264.751 276.71 250.001C276.71 235.249 264.753 223.291 250 223.291ZM250 273C256.358 273 262.096 270.427 266.263 266.263C270.426 262.098 272.999 256.357 272.999 250.001C272.999 243.645 270.426 237.903 266.263 233.739C262.096 229.573 256.358 227.001 250 227.001C243.642 227.001 237.904 229.573 233.738 233.739C229.574 237.906 227.003 243.645 227.001 250.001C227.003 256.357 229.574 262.098 233.738 266.263C237.904 270.427 243.642 273 250 273Z" fill="black" fill-opacity="0.2"/>
<path d="M266.263 266.263C262.096 270.427 256.358 273 250 273C243.642 273 237.904 270.427 233.738 266.263C229.574 262.098 227.003 256.357 227.001 250.001C227.003 243.645 229.574 237.906 233.738 233.739C237.904 229.573 243.642 227.001 250 227.001C256.358 227.001 262.096 229.573 266.263 233.739C270.426 237.903 272.999 243.645 272.999 250.001C272.999 256.357 270.426 262.098 266.263 266.263Z" fill="#25333C"/>
<path d="M266.263 266.263C262.096 270.427 256.358 273 250 273C243.642 273 237.904 270.427 233.738 266.263C229.574 262.098 227.003 256.357 227.001 250.001C227.003 243.645 229.574 237.906 233.738 233.739C237.904 229.573 243.642 227.001 250 227.001C256.358 227.001 262.096 229.573 266.263 233.739C270.426 237.903 272.999 243.645 272.999 250.001C272.999 256.357 270.426 262.098 266.263 266.263Z" fill="#FFDB56"/>
<path d="M307.75 394.65C305.626 392.521 304.318 389.604 304.317 386.36C304.318 383.115 305.626 380.199 307.75 378.071C309.879 375.945 312.796 374.637 316.039 374.637C317.25 374.637 318.412 374.82 319.506 375.159L322.023 375.939L322.293 373.317C322.699 369.356 324.573 365.834 327.37 363.295C330.17 360.755 333.865 359.215 337.941 359.214C340.72 359.214 343.315 359.93 345.577 361.19C347.838 362.448 349.76 364.254 351.161 366.422L354.787 364.077C353.002 361.316 350.56 359.023 347.678 357.418C344.796 355.811 341.468 354.896 337.941 354.896C332.762 354.894 328.022 356.869 324.468 360.098C321.482 362.807 319.332 366.419 318.406 370.496C317.632 370.381 316.842 370.32 316.039 370.32C311.617 370.318 307.594 372.119 304.697 375.018C301.799 377.913 299.999 381.937 300 386.36C299.999 390.783 301.798 394.807 304.698 397.702C307.593 400.602 311.617 402.403 316.04 402.4H316.179V398.084H316.04C312.796 398.082 309.879 396.774 307.75 394.65Z" fill="#25333C"/>
<path d="M304.317 386.36C304.318 389.604 305.626 392.521 307.75 394.65C309.879 396.774 312.796 398.082 316.04 398.084H316.179L324.468 399.5L359.945 368.916L352.5 369L351.161 366.422C349.76 364.254 347.838 362.448 345.577 361.19C343.315 359.93 340.72 359.214 337.941 359.214C333.865 359.215 330.17 360.755 327.37 363.295C324.573 365.834 322.699 369.356 322.293 373.317L322.023 375.939L319.506 375.159C318.412 374.82 317.25 374.637 316.039 374.637C312.796 374.637 309.879 375.945 307.75 378.071C305.626 380.199 304.318 383.115 304.317 386.36Z" fill="#C0D1DB"/>
<path d="M395.153 392.85C392.629 390.325 389.272 388.623 385.543 388.151C385.218 382.313 382.742 377.034 378.863 373.16C374.704 368.996 368.933 366.415 362.582 366.416C356.633 366.414 351.191 368.681 347.109 372.389C343.598 375.575 341.083 379.844 340.064 384.663C339.077 384.498 338.067 384.406 337.037 384.406C331.976 384.404 327.376 386.462 324.062 389.781C320.745 393.094 318.686 397.695 318.687 402.755C318.686 407.816 320.745 412.417 324.062 415.73C327.376 419.047 331.976 421.105 337.037 421.105H383.45C388.013 421.105 392.164 419.249 395.153 416.257C398.144 413.269 400.001 409.118 400 404.554C400.001 399.991 398.144 395.838 395.153 392.85ZM392.1 413.203C389.879 415.42 386.835 416.785 383.45 416.787H337.037C333.155 416.785 329.66 415.22 327.114 412.677C324.572 410.131 323.006 406.637 323.005 402.754C323.006 398.874 324.572 395.378 327.114 392.833C329.661 390.291 333.155 388.724 337.037 388.722C338.486 388.722 339.877 388.941 341.187 389.347L343.703 390.125L343.972 387.504C344.456 382.796 346.686 378.606 350.011 375.586C353.339 372.569 357.735 370.734 362.582 370.734C367.755 370.734 372.419 372.823 375.811 376.214C379.2 379.606 381.29 384.27 381.291 389.443C381.291 389.625 381.283 389.838 381.274 390.087L381.192 392.41L383.486 392.321C386.855 392.333 389.886 393.695 392.099 395.904C394.317 398.125 395.682 401.169 395.682 404.554C395.682 407.939 394.317 410.983 392.1 413.203Z" fill="#25333C"/>
<path d="M392.1 413.203C389.879 415.42 386.835 416.785 383.45 416.787H337.037C333.155 416.785 329.66 415.22 327.114 412.677C324.572 410.131 323.006 406.637 323.005 402.754C323.006 398.874 324.572 395.378 327.114 392.833C329.661 390.291 333.155 388.724 337.037 388.722C338.486 388.722 339.877 388.941 341.187 389.347L343.703 390.125L343.972 387.504C344.456 382.796 346.686 378.606 350.011 375.586C353.339 372.569 357.735 370.734 362.582 370.734C367.755 370.734 372.419 372.823 375.811 376.214C379.2 379.606 381.29 384.27 381.291 389.443C381.291 389.625 381.283 389.838 381.274 390.087L381.192 392.41L383.486 392.321C386.855 392.333 389.886 393.695 392.099 395.904C394.317 398.125 395.682 401.169 395.682 404.554C395.682 407.939 394.317 410.983 392.1 413.203Z" fill="#E7F6FF"/>
<path d="M107.75 115.65C105.626 113.521 104.318 110.604 104.317 107.36C104.318 104.115 105.626 101.199 107.75 99.0713C109.879 96.9451 112.796 95.6375 116.039 95.6375C117.25 95.6375 118.412 95.8197 119.506 96.1588L122.023 96.9395L122.293 94.3172C122.699 90.3564 124.573 86.8344 127.37 84.2949C130.17 81.7555 133.865 80.215 137.941 80.2137C140.72 80.2137 143.315 80.9299 145.577 82.1898C147.838 83.4484 149.76 85.2537 151.161 87.4217L154.787 85.077C153.002 82.316 150.56 80.023 147.678 78.4184C144.796 76.8107 141.468 75.8955 137.941 75.8955C132.762 75.8943 128.022 77.8689 124.468 81.098C121.482 83.8072 119.332 87.4189 118.406 91.4961C117.632 91.3813 116.842 91.3195 116.039 91.3195C111.617 91.318 107.594 93.1191 104.697 96.0176C101.799 98.9127 99.9986 102.937 100 107.36C99.9986 111.783 101.798 115.807 104.698 118.702C107.593 121.602 111.617 123.403 116.04 123.4H116.179V119.084H116.04C112.796 119.082 109.879 117.774 107.75 115.65Z" fill="#25333C"/>
<path d="M104.317 107.36C104.318 110.604 105.626 113.521 107.75 115.65C109.879 117.774 112.796 119.082 116.04 119.084H116.179L124.468 120.5L159.945 89.9164L152.5 90L151.161 87.4217C149.76 85.2537 147.838 83.4484 145.577 82.1898C143.315 80.9299 140.72 80.2137 137.941 80.2137C133.865 80.215 130.17 81.7555 127.37 84.2949C124.573 86.8344 122.699 90.3564 122.293 94.3172L122.023 96.9395L119.506 96.1588C118.412 95.8197 117.25 95.6375 116.039 95.6375C112.796 95.6375 109.879 96.9451 107.75 99.0713C105.626 101.199 104.318 104.115 104.317 107.36Z" fill="#C0D1DB"/>
<path d="M195.153 113.85C192.629 111.325 189.272 109.623 185.543 109.151C185.218 103.313 182.742 98.034 178.863 94.1602C174.704 89.9961 168.933 87.4146 162.582 87.416C156.633 87.4145 151.191 89.6809 147.109 93.3893C143.598 96.5748 141.083 100.844 140.064 105.663C139.077 105.498 138.067 105.406 137.037 105.406C131.976 105.404 127.376 107.462 124.062 110.781C120.745 114.094 118.686 118.695 118.687 123.755C118.686 128.816 120.745 133.417 124.062 136.73C127.376 140.047 131.976 142.105 137.037 142.105H183.45C188.013 142.105 192.164 140.249 195.153 137.257C198.144 134.269 200.001 130.118 200 125.554C200.001 120.991 198.144 116.838 195.153 113.85ZM192.1 134.203C189.879 136.42 186.835 137.785 183.45 137.787H137.037C133.155 137.785 129.66 136.22 127.114 133.677C124.572 131.131 123.006 127.637 123.005 123.754C123.006 119.874 124.572 116.378 127.114 113.833C129.661 111.291 133.155 109.724 137.037 109.722C138.486 109.722 139.877 109.941 141.187 110.347L143.703 111.125L143.972 108.504C144.456 103.796 146.686 99.6062 150.011 96.5859C153.339 93.5686 157.735 91.734 162.582 91.734C167.755 91.734 172.419 93.8234 175.811 97.2139C179.2 100.606 181.29 105.27 181.291 110.443C181.291 110.625 181.283 110.838 181.274 111.087L181.192 113.41L183.486 113.321C186.855 113.333 189.886 114.695 192.099 116.904C194.317 119.125 195.682 122.169 195.682 125.554C195.682 128.939 194.317 131.983 192.1 134.203Z" fill="#25333C"/>
<path d="M192.1 134.203C189.879 136.42 186.835 137.785 183.45 137.787H137.037C133.155 137.785 129.66 136.22 127.114 133.677C124.572 131.131 123.006 127.637 123.005 123.754C123.006 119.874 124.572 116.378 127.114 113.833C129.661 111.291 133.155 109.724 137.037 109.722C138.486 109.722 139.877 109.941 141.187 110.347L143.703 111.125L143.972 108.504C144.456 103.796 146.686 99.6062 150.011 96.5859C153.339 93.5686 157.735 91.734 162.582 91.734C167.755 91.734 172.419 93.8234 175.811 97.2139C179.2 100.606 181.29 105.27 181.291 110.443C181.291 110.625 181.283 110.838 181.274 111.087L181.192 113.41L183.486 113.321C186.855 113.333 189.886 114.695 192.099 116.904C194.317 119.125 195.682 122.169 195.682 125.554C195.682 128.939 194.317 131.983 192.1 134.203Z" fill="#E7F6FF"/>
<path d="M294.038 486.432C290.941 483.332 286.828 481.228 282.254 480.642C281.854 473.465 278.776 466.981 274.006 462.217C268.891 457.096 261.795 453.921 253.983 453.923C246.666 453.921 239.974 456.708 234.953 461.269C230.635 465.187 227.535 470.433 226.283 476.361C225.071 476.159 223.83 476.047 222.567 476.047C216.343 476.044 210.687 478.576 206.61 482.655C202.53 486.73 199.998 492.388 200 498.612C199.998 504.835 202.53 510.495 206.61 514.569C210.586 518.549 216.071 521.036 222.116 521.155V515.847C217.526 515.726 213.396 513.842 210.366 510.814C207.237 507.682 205.312 503.387 205.31 498.613C205.312 493.838 207.237 489.541 210.366 486.409C213.496 483.283 217.794 481.356 222.567 481.356C224.349 481.356 226.059 481.625 227.671 482.123L230.766 483.079L231.097 479.858C231.691 474.067 234.432 468.913 238.522 465.201C242.616 461.488 248.021 459.233 253.983 459.232C260.343 459.233 266.079 461.803 270.252 465.971C274.42 470.142 276.989 475.878 276.991 482.242C276.991 482.441 276.983 482.67 276.974 482.933C276.973 482.966 276.971 482.999 276.97 483.033L276.869 485.889L279.671 485.782C283.822 485.789 287.557 487.464 290.284 490.188C293.01 492.918 294.687 496.661 294.689 500.826C294.687 504.988 293.01 508.732 290.284 511.462C287.809 513.934 284.497 515.53 280.8 515.811V521.119C285.954 520.83 290.618 518.641 294.038 515.218C297.717 511.541 300.001 506.438 300 500.826C300.002 495.212 297.718 490.106 294.038 486.432Z" fill="#25333C"/>
<path d="M210.366 510.814C213.396 513.842 217.526 515.726 222.116 515.847L280.8 515.811C284.497 515.53 287.809 513.934 290.284 511.462C293.01 508.732 294.687 504.988 294.689 500.826C294.687 496.661 293.01 492.918 290.284 490.188C287.557 487.464 283.822 485.789 279.671 485.782L276.869 485.889L276.97 483.033L276.974 482.933C276.983 482.67 276.991 482.441 276.991 482.242C276.989 475.878 274.42 470.142 270.252 465.971C266.079 461.803 260.343 459.233 253.983 459.232C248.021 459.233 242.616 461.488 238.522 465.201C234.432 468.913 231.691 474.067 231.097 479.858L230.766 483.079L227.671 482.123C226.059 481.625 224.349 481.356 222.567 481.356C217.794 481.356 213.496 483.283 210.366 486.409C207.237 489.541 205.312 493.838 205.31 498.613C205.312 503.387 207.237 507.682 210.366 510.814Z" fill="#E7F6FF"/>
<path d="M222.116 515.847V521.155L280.8 521.119V515.811L222.116 515.847Z" fill="#E7F6FF"/>
<path d="M274.663 502.463L267.415 506.649L267.424 500.458L264.178 500.455L264.166 508.523L253.108 514.909L252.73 515.128V501.92L259.713 497.878L258.087 495.067L252.73 498.169V489.799H249.485V498.169L244.128 495.067L242.502 497.878L249.485 501.92V515.128L238.048 508.523L238.037 500.455L234.791 500.458L234.798 506.648L227.552 502.463L225.926 505.276L233.174 509.459L227.81 512.548L229.432 515.36L236.423 511.336L247.859 517.939L236.425 524.542L229.432 520.516L227.81 523.329L233.178 526.417L225.926 530.602L227.552 533.413L234.798 529.228L234.791 535.418L238.037 535.421L238.045 527.353L249.485 520.75V521.184V533.957L242.502 537.998L244.128 540.808L249.485 537.707V546.077H252.73V537.707L258.087 540.808L259.713 537.998L252.73 533.957V521.184V520.75L253.108 520.967L264.166 527.353L264.178 535.421L267.424 535.418L267.417 529.228L274.663 533.413L276.288 530.602L269.037 526.417L274.405 523.329L272.783 520.516L265.79 524.542L254.73 518.156L254.354 517.939L254.73 517.72L265.792 511.336L272.783 515.36L274.405 512.548L269.039 509.46L276.288 505.276L274.663 502.463Z" fill="#25333C"/>
<path fill-rule="evenodd" clip-rule="evenodd" d="M144.039 248.88C140.935 245.774 136.806 243.682 132.221 243.101C131.821 235.922 128.775 229.429 124.006 224.665C118.89 219.544 111.793 216.369 103.983 216.371C96.6668 216.369 89.974 219.156 84.9539 223.717C80.6354 227.635 77.5422 232.885 76.29 238.811C75.0768 238.609 73.834 238.495 72.5662 238.495C66.3439 238.494 60.6854 241.024 56.61 245.105C52.5303 249.18 49.9992 254.839 50 261.061C49.9992 267.285 52.5303 272.944 56.6102 277.018C60.6855 281.098 66.3441 283.629 72.5664 283.629H129.646C135.258 283.629 140.363 281.346 144.039 277.667C147.718 273.992 150.002 268.887 150 263.274C150.002 257.662 147.718 252.555 144.039 248.88ZM129.647 278.318C133.809 278.316 137.553 276.638 140.284 273.911C143.011 271.18 144.689 267.437 144.69 263.274C144.689 259.112 143.011 255.368 140.284 252.636C137.562 249.92 133.835 248.244 129.69 248.23L126.87 248.339L126.971 245.483L126.974 245.376C126.983 245.115 126.991 244.888 126.991 244.69C126.991 238.328 124.42 232.592 120.252 228.421C116.08 224.251 110.345 221.681 103.983 221.681C98.0225 221.681 92.6146 223.938 88.5227 227.649C84.4334 231.363 81.691 236.515 81.0965 242.306L80.7656 245.529L77.6709 244.573C76.0584 244.073 74.3486 243.804 72.5664 243.804C67.793 243.806 63.4959 245.733 60.3641 248.859C57.2375 251.99 55.3113 256.288 55.3098 261.061C55.3113 265.835 57.2375 270.132 60.3641 273.263C63.4957 276.391 67.7928 278.316 72.5664 278.318H129.647Z" fill="#25333C"/>
<path d="M140.284 273.911C137.553 276.638 133.809 278.316 129.647 278.318H72.5664C67.7928 278.316 63.4957 276.391 60.3641 273.263C57.2375 270.132 55.3113 265.835 55.3098 261.061C55.3113 256.288 57.2375 251.99 60.3641 248.859C63.4959 245.733 67.793 243.806 72.5664 243.804C74.3486 243.804 76.0584 244.073 77.6709 244.573L80.7656 245.529L81.0965 242.306C81.691 236.515 84.4334 231.363 88.5227 227.649C92.6146 223.938 98.0225 221.681 103.983 221.681C110.345 221.681 116.08 224.251 120.252 228.421C124.42 232.592 126.991 238.328 126.991 244.69C126.991 244.888 126.983 245.115 126.974 245.376L126.971 245.483L126.87 248.339L129.69 248.23C133.835 248.244 137.562 249.92 140.284 252.636C143.011 255.368 144.689 259.112 144.69 263.274C144.689 267.437 143.011 271.18 140.284 273.911Z" fill="#E7F6FF"/>
<path fill-rule="evenodd" clip-rule="evenodd" d="M455.231 -0.895483C452.748 -3.38017 449.445 -5.05424 445.777 -5.51892C445.457 -11.262 443.02 -16.4564 439.205 -20.2677C435.112 -24.3644 429.435 -26.9042 423.186 -26.9028C417.333 -26.9042 411.979 -24.6745 407.963 -21.026C404.508 -17.8917 402.034 -13.6916 401.032 -8.95095C400.061 -9.11236 399.067 -9.20345 398.053 -9.20345C393.075 -9.2047 388.548 -7.18048 385.288 -3.91533C382.024 -0.655485 379.999 3.87139 380 8.84921C379.999 13.8284 382.024 18.3553 385.288 21.615C388.548 24.8787 393.075 26.9031 398.053 26.9031H443.717C448.206 26.9031 452.29 25.0775 455.231 22.1336C458.174 19.1937 460.001 15.1095 460 10.6198C460.001 6.12999 458.174 2.04436 455.231 -0.895483ZM443.717 22.6545C447.047 22.6533 450.042 21.3103 452.227 19.1289C454.409 16.9447 455.752 13.9497 455.752 10.6197C455.752 7.28967 454.408 4.29467 452.227 2.1092C450.05 -0.0640793 447.068 -1.40439 443.752 -1.41533L441.496 -1.32845L441.577 -3.6133L441.58 -3.69861C441.587 -3.90774 441.593 -4.08944 441.593 -4.24767C441.593 -9.33721 439.536 -13.9261 436.202 -17.2631C432.864 -20.5986 428.276 -22.6545 423.186 -22.6545C418.418 -22.6545 414.092 -20.8495 410.818 -17.8808C407.547 -14.9094 405.353 -10.7877 404.877 -6.1547L404.613 -3.57611L402.137 -4.34142C400.847 -4.74142 399.479 -4.95642 398.053 -4.95642C394.234 -4.95517 390.797 -3.41345 388.291 -0.912203C385.79 1.59202 384.249 5.03092 384.248 8.84905C384.249 12.6686 385.79 16.1061 388.291 18.6103C390.797 21.113 394.234 22.6533 398.053 22.6545H443.717Z" fill="#25333C"/>
<path d="M452.227 19.1289C450.042 21.3103 447.047 22.6533 443.717 22.6545H398.053C394.234 22.6533 390.797 21.113 388.291 18.6103C385.79 16.1061 384.249 12.6686 384.248 8.84905C384.249 5.03092 385.79 1.59202 388.291 -0.912203C390.797 -3.41345 394.234 -4.95517 398.053 -4.95642C399.479 -4.95642 400.847 -4.74142 402.137 -4.34142L404.613 -3.57611L404.877 -6.1547C405.353 -10.7877 407.547 -14.9094 410.818 -17.8808C414.092 -20.8495 418.418 -22.6545 423.186 -22.6545C428.276 -22.6545 432.864 -20.5986 436.202 -17.2631C439.536 -13.9261 441.593 -9.33721 441.593 -4.24767C441.593 -4.08944 441.587 -3.90774 441.58 -3.69861L441.577 -3.6133L441.496 -1.32845L443.752 -1.41533C447.068 -1.40439 450.05 -0.0640793 452.227 2.1092C454.408 4.29467 455.752 7.28967 455.752 10.6197C455.752 13.9497 454.409 16.9447 452.227 19.1289Z" fill="#E7F6FF"/>
<path fill-rule="evenodd" clip-rule="evenodd" d="M455.231 499.105C452.748 496.62 449.445 494.946 445.777 494.481C445.457 488.738 443.02 483.544 439.205 479.732C435.112 475.636 429.435 473.096 423.186 473.097C417.333 473.096 411.979 475.325 407.963 478.974C404.508 482.108 402.034 486.308 401.032 491.049C400.061 490.888 399.067 490.797 398.053 490.797C393.075 490.795 388.548 492.82 385.288 496.085C382.024 499.345 379.999 503.871 380 508.849C379.999 513.828 382.024 518.355 385.288 521.615C388.548 524.879 393.075 526.903 398.053 526.903H443.717C448.206 526.903 452.29 525.077 455.231 522.134C458.174 519.194 460.001 515.11 460 510.62C460.001 506.13 458.174 502.044 455.231 499.105ZM443.717 522.655C447.047 522.653 450.042 521.31 452.227 519.129C454.409 516.945 455.752 513.95 455.752 510.62C455.752 507.29 454.408 504.295 452.227 502.109C450.05 499.936 447.068 498.596 443.752 498.585L441.496 498.672L441.577 496.387L441.58 496.301C441.587 496.092 441.593 495.911 441.593 495.752C441.593 490.663 439.536 486.074 436.202 482.737C432.864 479.401 428.276 477.345 423.186 477.345C418.418 477.345 414.092 479.15 410.818 482.119C407.547 485.091 405.353 489.212 404.877 493.845L404.613 496.424L402.137 495.659C400.847 495.259 399.479 495.044 398.053 495.044C394.234 495.045 390.797 496.587 388.291 499.088C385.79 501.592 384.249 505.031 384.248 508.849C384.249 512.669 385.79 516.106 388.291 518.61C390.797 521.113 394.234 522.653 398.053 522.655H443.717Z" fill="#25333C"/>
<path d="M452.227 519.129C450.042 521.31 447.047 522.653 443.717 522.655H398.053C394.234 522.653 390.797 521.113 388.291 518.61C385.79 516.106 384.249 512.669 384.248 508.849C384.249 505.031 385.79 501.592 388.291 499.088C390.797 496.587 394.234 495.045 398.053 495.044C399.479 495.044 400.847 495.259 402.137 495.659L404.613 496.424L404.877 493.845C405.353 489.212 407.547 485.091 410.818 482.119C414.092 479.15 418.418 477.345 423.186 477.345C428.276 477.345 432.864 479.401 436.202 482.737C439.536 486.074 441.593 490.663 441.593 495.752C441.593 495.911 441.587 496.092 441.58 496.301L441.577 496.387L441.496 498.672L443.752 498.585C447.068 498.596 450.05 499.936 452.227 502.109C454.408 504.295 455.752 507.29 455.752 510.62C455.752 513.95 454.409 516.945 452.227 519.129Z" fill="#E7F6FF"/>
<path d="M312.768 115.061C313.668 114.14 314.644 113.294 315.684 112.529C312.6 109.464 310.689 105.221 310.689 100.529C310.689 91.1861 318.265 83.6104 327.61 83.6104C334.018 83.6104 339.592 87.174 342.464 92.4281C344.685 90.9121 347.127 89.7041 349.732 88.8547L349.857 88.5055C349.95 88.2477 349.924 87.9607 349.788 87.7236C349.65 87.4863 349.415 87.3197 349.145 87.2717L342.766 86.126C342.383 86.057 342.082 85.7574 342.013 85.373L340.868 78.9941C340.82 78.725 340.654 78.4879 340.416 78.3516C340.179 78.2137 339.893 78.1865 339.634 78.2811L333.535 80.4713C333.17 80.6045 332.76 80.4955 332.508 80.1975L328.321 75.251C328.145 75.0412 327.882 74.9209 327.61 74.9209C327.334 74.9209 327.075 75.0412 326.897 75.251L322.71 80.1975C322.459 80.4955 322.048 80.6045 321.681 80.4746L315.585 78.2828C315.327 78.1898 315.04 78.2152 314.801 78.3518C314.564 78.4895 314.4 78.725 314.351 78.9943L313.205 85.3732C313.134 85.7576 312.835 86.0572 312.452 86.1262L306.073 87.2703C305.802 87.3199 305.568 87.4852 305.43 87.7223C305.293 87.9609 305.267 88.2461 305.36 88.5057L307.552 94.6041C307.684 94.9711 307.575 95.3797 307.277 95.6328L302.33 99.818C302.12 99.9943 302 100.257 302 100.529C302 100.805 302.12 101.064 302.33 101.242L307.276 105.429C307.574 105.681 307.683 106.091 307.552 106.458L305.36 112.555C305.267 112.814 305.293 113.1 305.43 113.338C305.568 113.576 305.802 113.739 306.073 113.789L312.452 114.933C312.567 114.954 312.671 115.002 312.768 115.061Z" fill="#25333C"/>
<path d="M310.689 100.529C310.689 105.221 312.6 109.464 315.684 112.529L342.464 92.4281C339.592 87.174 334.018 83.6104 327.61 83.6104C318.265 83.6104 310.689 91.1861 310.689 100.529Z" fill="#FFDB56"/>
<path d="M392.458 110.777C389.573 107.889 385.736 105.944 381.472 105.404C381.1 98.7302 378.269 92.6942 373.835 88.2655C369.08 83.505 362.483 80.5534 355.221 80.5552C348.419 80.5536 342.197 83.1444 337.531 87.3843C333.517 91.0263 330.641 95.9069 329.478 101.416C328.35 101.228 327.195 101.123 326.015 101.123C320.229 101.121 314.971 103.473 311.181 107.267C307.388 111.055 305.036 116.316 305.036 122.1C305.036 127.886 307.388 133.147 311.181 136.935C314.971 140.727 320.229 143.08 326.015 143.08H379.078C384.297 143.08 389.041 140.958 392.458 137.537C395.879 134.121 398.002 129.375 398 124.158C398.002 118.941 395.879 114.193 392.458 110.777ZM388.968 134.046C386.428 136.581 382.948 138.141 379.078 138.143H326.015C321.578 138.141 317.582 136.351 314.672 133.443C311.764 130.533 309.974 126.539 309.973 122.1C309.974 117.663 311.764 113.667 314.672 110.757C317.582 107.851 321.578 106.059 326.015 106.058C327.672 106.058 329.262 106.308 330.76 106.772L333.638 107.662L333.945 104.665C334.496 99.2812 337.047 94.4919 340.848 91.039C344.654 87.5892 349.68 85.4917 355.221 85.4917C361.133 85.4917 366.466 87.8808 370.345 91.7569C374.221 95.6347 376.609 100.967 376.611 106.881C376.611 107.09 376.603 107.333 376.591 107.618L376.497 110.274L379.118 110.172C382.972 110.185 386.438 111.743 388.968 114.268C391.503 116.808 393.062 120.288 393.065 124.158C393.062 128.027 391.503 131.508 388.968 134.046Z" fill="#25333C"/>
<path d="M388.968 134.046C386.428 136.581 382.948 138.141 379.078 138.143H326.015C321.578 138.141 317.582 136.351 314.672 133.443C311.764 130.533 309.974 126.539 309.973 122.1C309.974 117.663 311.764 113.667 314.672 110.757C317.582 107.851 321.578 106.059 326.015 106.058C327.672 106.058 329.262 106.308 330.76 106.772L333.638 107.662L333.945 104.665C334.496 99.2812 337.047 94.4919 340.848 91.039C344.654 87.5892 349.68 85.4917 355.221 85.4917C361.133 85.4917 366.466 87.8808 370.345 91.7569C374.221 95.6347 376.609 100.967 376.611 106.881C376.611 107.09 376.603 107.333 376.591 107.618L376.497 110.274L379.118 110.172C382.972 110.185 386.438 111.743 388.968 114.268C391.503 116.808 393.062 120.288 393.065 124.158C393.062 128.027 391.503 131.508 388.968 134.046Z" fill="#E7F6FF"/>
<path d="M50.214 504.849C50.9344 504.112 51.7151 503.435 52.547 502.823C50.0797 500.371 48.5515 496.977 48.5515 493.224C48.5515 485.749 54.6122 479.688 62.0881 479.688C67.2143 479.688 71.6739 482.539 73.9709 486.743C75.7478 485.53 77.7012 484.563 79.7854 483.884L79.8854 483.604C79.9598 483.398 79.9392 483.169 79.8303 482.979C79.72 482.789 79.5317 482.656 79.3162 482.617L74.2131 481.701C73.9067 481.646 73.6658 481.406 73.6106 481.099L72.694 475.995C72.6556 475.78 72.5236 475.59 72.3325 475.481C72.1428 475.371 71.9145 475.349 71.7069 475.425L66.8281 477.177C66.5359 477.284 66.2078 477.197 66.0065 476.958L62.657 473.001C62.5161 472.833 62.3058 472.737 62.0878 472.737C61.8673 472.737 61.6597 472.833 61.5173 473.001L58.1681 476.958C57.9669 477.197 57.6387 477.284 57.345 477.18L52.4676 475.426C52.2612 475.352 52.0319 475.372 51.8408 475.482C51.6509 475.592 51.5203 475.78 51.4804 475.996L50.564 481.099C50.5075 481.406 50.2678 481.646 49.9615 481.701L44.8584 482.616C44.6419 482.656 44.4547 482.788 44.3444 482.978C44.234 483.169 44.2137 483.397 44.2881 483.605L46.0417 488.483C46.1469 488.777 46.0597 489.104 45.8212 489.306L41.864 492.654C41.6961 492.796 41.6 493.006 41.6 493.224C41.6 493.444 41.6961 493.652 41.864 493.794L45.8211 497.144C46.0595 497.345 46.1467 497.673 46.0415 497.966L44.2879 502.844C44.2136 503.052 44.234 503.28 44.3442 503.471C44.4545 503.661 44.6417 503.791 44.8583 503.831L49.9614 504.746C50.0539 504.763 50.1372 504.802 50.214 504.849Z" fill="#25333C"/>
<path d="M48.5515 493.224C48.5515 496.977 50.0797 500.371 52.547 502.823L73.9709 486.743C71.6739 482.539 67.2143 479.688 62.0881 479.688C54.6122 479.688 48.5515 485.749 48.5515 493.224Z" fill="#FFDB56"/>
<path d="M113.966 501.421C111.659 499.111 108.589 497.555 105.178 497.123C104.88 491.784 102.615 486.955 99.0683 483.412C95.2636 479.604 89.9861 477.243 84.1767 477.244C78.7352 477.243 73.7577 479.316 70.025 482.707C66.8139 485.621 64.513 489.526 63.5823 493.933C62.6798 493.783 61.7556 493.698 60.8122 493.698C56.1834 493.697 51.9764 495.579 48.9447 498.614C45.9106 501.644 44.0287 505.853 44.0287 510.48C44.0287 515.109 45.9106 519.317 48.9447 522.348C51.9764 525.382 56.1834 527.264 60.8122 527.264H103.263C107.438 527.264 111.233 525.566 113.966 522.83C116.703 520.097 118.401 516.3 118.4 512.126C118.401 507.952 116.703 504.154 113.966 501.421ZM111.174 520.036C109.142 522.064 106.358 523.313 103.263 523.314H60.8122C57.2627 523.313 54.0658 521.881 51.7378 519.555C49.4112 517.227 47.9794 514.031 47.9781 510.48C47.9794 506.931 49.4112 503.734 51.7378 501.406C54.0658 499.081 57.2627 497.647 60.8122 497.646C62.1377 497.646 63.4092 497.846 64.6078 498.218L66.91 498.929L67.1561 496.532C67.5972 492.225 69.638 488.394 72.6784 485.631C75.7228 482.871 79.7441 481.193 84.1767 481.193C88.9067 481.193 93.1728 483.105 96.2762 486.206C99.3772 489.308 101.287 493.574 101.288 498.305C101.288 498.472 101.282 498.667 101.273 498.895L101.197 501.019L103.295 500.938C106.377 500.948 109.15 502.194 111.174 504.214C113.202 506.246 114.449 509.03 114.452 512.126C114.449 515.222 113.202 518.006 111.174 520.036Z" fill="#25333C"/>
<path d="M111.174 520.036C109.142 522.064 106.358 523.313 103.263 523.314H60.8122C57.2627 523.313 54.0658 521.881 51.7378 519.555C49.4112 517.227 47.9794 514.031 47.9781 510.48C47.9794 506.931 49.4112 503.734 51.7378 501.406C54.0658 499.081 57.2627 497.647 60.8122 497.646C62.1377 497.646 63.4092 497.846 64.6078 498.218L66.91 498.929L67.1561 496.532C67.5972 492.225 69.638 488.394 72.6784 485.631C75.7228 482.871 79.7441 481.193 84.1767 481.193C88.9067 481.193 93.1728 483.105 96.2762 486.206C99.3772 489.308 101.287 493.574 101.288 498.305C101.288 498.472 101.282 498.667 101.273 498.895L101.197 501.019L103.295 500.938C106.377 500.948 109.15 502.194 111.174 504.214C113.202 506.246 114.449 509.03 114.452 512.126C114.449 515.222 113.202 518.006 111.174 520.036Z" fill="#E7F6FF"/>
<path d="M50.214 4.84885C50.9344 4.11182 51.7151 3.43494 52.547 2.82338C50.0797 0.371349 48.5515 -3.02303 48.5515 -6.77631C48.5515 -14.251 54.6122 -20.3116 62.0881 -20.3116C67.2143 -20.3116 71.6739 -17.4607 73.9709 -13.2574C75.7478 -14.4702 77.7012 -15.4366 79.7854 -16.1162L79.8854 -16.3955C79.9598 -16.6018 79.9392 -16.8313 79.8303 -17.021C79.72 -17.2108 79.5317 -17.3441 79.3162 -17.3826L74.2131 -18.2991C73.9067 -18.3543 73.6658 -18.594 73.6106 -18.9015L72.694 -24.0046C72.6556 -24.2199 72.5236 -24.4096 72.3325 -24.5187C72.1428 -24.629 71.9145 -24.6507 71.7069 -24.5751L66.8281 -22.8229C66.5359 -22.7163 66.2078 -22.8035 66.0065 -23.0419L62.657 -26.9991C62.5161 -27.1669 62.3058 -27.2632 62.0878 -27.2632C61.8673 -27.2632 61.6597 -27.1669 61.5173 -26.9991L58.1681 -23.0419C57.9669 -22.8035 57.6387 -22.7163 57.345 -22.8202L52.4676 -24.5737C52.2612 -24.648 52.0319 -24.6277 51.8408 -24.5185C51.6509 -24.4083 51.5203 -24.2199 51.4804 -24.0044L50.564 -18.9013C50.5075 -18.5938 50.2678 -18.3541 49.9615 -18.299L44.8584 -17.3837C44.6419 -17.344 44.4547 -17.2118 44.3444 -17.0221C44.234 -16.8312 44.2137 -16.603 44.2881 -16.3954L46.0417 -11.5166C46.1469 -11.223 46.0597 -10.8962 45.8212 -10.6937L41.864 -7.34553C41.6961 -7.20444 41.6 -6.99428 41.6 -6.77631C41.6 -6.556 41.6961 -6.34834 41.864 -6.206L45.8211 -2.85646C46.0595 -2.65521 46.1467 -2.32709 46.0415 -2.03365L44.2879 2.844C44.2136 3.05166 44.234 3.27979 44.3442 3.47088C44.4545 3.66057 44.6417 3.79119 44.8583 3.83104L49.9614 4.74635C50.0539 4.76307 50.1372 4.8015 50.214 4.84885Z" fill="#25333C"/>
<path d="M48.5515 -6.77631C48.5515 -3.02303 50.0797 0.371349 52.547 2.82338L73.9709 -13.2574C71.6739 -17.4607 67.2143 -20.3116 62.0881 -20.3116C54.6122 -20.3116 48.5515 -14.251 48.5515 -6.77631Z" fill="#FFDB56"/>
<path d="M113.966 1.42133C111.659 -0.88867 108.589 -2.44476 105.178 -2.87679C104.88 -8.21585 102.615 -13.0446 99.0683 -16.5876C95.2636 -20.396 89.9861 -22.7573 84.1767 -22.7559C78.7352 -22.7571 73.7577 -20.6845 70.025 -17.2926C66.8139 -14.379 64.513 -10.4745 63.5823 -6.06742C62.6798 -6.21726 61.7556 -6.30195 60.8122 -6.30195C56.1834 -6.3032 51.9764 -4.42148 48.9447 -1.38601C45.9106 1.6443 44.0287 5.85273 44.0287 10.4802C44.0287 15.109 45.9106 19.3174 48.9447 22.3477C51.9764 25.3818 56.1834 27.2637 60.8122 27.2637H103.263C107.438 27.2637 111.233 25.5665 113.966 22.8298C116.703 20.0968 118.401 16.2999 118.4 12.1262C118.401 7.95242 116.703 4.15414 113.966 1.42133ZM111.174 20.0365C109.142 22.0645 106.358 23.3129 103.263 23.3143H60.8122C57.2627 23.313 54.0658 21.8812 51.7378 19.5546C49.4112 17.2266 47.9794 14.0309 47.9781 10.4802C47.9794 6.9307 49.4112 3.73367 51.7378 1.40586C54.0658 -0.919451 57.2627 -2.35258 60.8122 -2.35398C62.1377 -2.35398 63.4092 -2.15399 64.6078 -1.78211L66.91 -1.0707L67.1561 -3.46789C67.5972 -7.77508 69.638 -11.6065 72.6784 -14.3688C75.7228 -17.1287 79.7441 -18.8066 84.1767 -18.8066C88.9067 -18.8066 93.1728 -16.8954 96.2762 -13.7945C99.3772 -10.6923 101.287 -6.42633 101.288 -1.69492C101.288 -1.52836 101.282 -1.33336 101.273 -1.10523L101.197 1.01883L103.295 0.937895C106.377 0.948206 109.15 2.19414 111.174 4.21446C113.202 6.24633 114.449 9.03039 114.452 12.1262C114.449 15.222 113.202 18.0062 111.174 20.0365Z" fill="#25333C"/>
<path d="M111.174 20.0365C109.142 22.0645 106.358 23.3129 103.263 23.3143H60.8122C57.2627 23.313 54.0658 21.8812 51.7378 19.5546C49.4112 17.2266 47.9794 14.0309 47.9781 10.4802C47.9794 6.9307 49.4112 3.73367 51.7378 1.40586C54.0658 -0.919451 57.2627 -2.35258 60.8122 -2.35398C62.1377 -2.35398 63.4092 -2.15399 64.6078 -1.78211L66.91 -1.0707L67.1561 -3.46789C67.5972 -7.77508 69.638 -11.6065 72.6784 -14.3688C75.7228 -17.1287 79.7441 -18.8066 84.1767 -18.8066C88.9067 -18.8066 93.1728 -16.8954 96.2762 -13.7945C99.3772 -10.6923 101.287 -6.42633 101.288 -1.69492C101.288 -1.52836 101.282 -1.33336 101.273 -1.10523L101.197 1.01883L103.295 0.937895C106.377 0.948206 109.15 2.19414 111.174 4.21446C113.202 6.24633 114.449 9.03039 114.452 12.1262C114.449 15.222 113.202 18.0062 111.174 20.0365Z" fill="#E7F6FF"/>
<path d="M370.576 287.843C370.576 290.648 372.85 292.92 375.654 292.92C378.458 292.92 380.732 290.648 380.732 287.843C380.732 285.039 375.654 277.876 375.654 277.876C375.654 277.876 370.576 285.039 370.576 287.843Z" fill="#25333C"/>
<path d="M395.276 287.843C395.276 290.648 397.551 292.92 400.354 292.92C403.16 292.92 405.431 290.648 405.431 287.843C405.431 285.039 400.354 277.876 400.354 277.876C400.354 277.876 395.276 285.039 395.276 287.843Z" fill="#25333C"/>
<path d="M419.979 287.843C419.979 290.648 422.25 292.92 425.056 292.92C427.859 292.92 430.134 290.648 430.134 287.843C430.134 285.039 425.056 277.876 425.056 277.876C425.056 277.876 419.979 285.039 419.979 287.843Z" fill="#25333C"/>
<path d="M444.038 239.59C440.936 236.484 436.808 234.391 432.221 233.81C431.821 226.63 428.776 220.139 424.006 215.375C418.889 210.254 411.795 207.079 403.983 207.081C396.668 207.079 389.974 209.866 384.955 214.427C380.635 218.346 377.543 223.594 376.29 229.52C375.077 229.319 373.834 229.205 372.567 229.205C366.343 229.201 360.686 231.733 356.61 235.813C352.53 239.888 350 245.546 350 251.77C350 257.993 352.53 263.653 356.61 267.727C360.686 271.807 366.343 274.337 372.567 274.336H429.646C435.258 274.337 440.363 272.054 444.038 268.375C447.718 264.699 450 259.596 450 253.983C450 248.37 447.718 243.264 444.038 239.59ZM440.282 264.62C437.552 267.347 433.809 269.025 429.646 269.027H372.567C367.795 269.025 363.496 267.1 360.366 263.972C357.237 260.84 355.312 256.545 355.31 251.77C355.312 246.996 357.237 242.699 360.366 239.567C363.496 236.441 367.795 234.514 372.567 234.514C374.347 234.514 376.059 234.783 377.671 235.281L380.766 236.237L381.097 233.016C381.69 227.225 384.434 222.071 388.522 218.358C392.614 214.646 398.023 212.391 403.983 212.39C410.343 212.391 416.079 214.961 420.252 219.129C424.42 223.3 426.989 229.036 426.989 235.4C426.989 235.624 426.981 235.886 426.969 236.191L426.869 239.047L429.67 238.94C433.821 238.948 437.557 240.622 440.282 243.345C443.008 246.075 444.687 249.819 444.691 253.983C444.688 258.146 443.009 261.89 440.282 264.62Z" fill="#25333C"/>
<path d="M440.282 264.62C437.552 267.347 433.809 269.025 429.646 269.027H372.567C367.795 269.025 363.496 267.1 360.366 263.972C357.237 260.84 355.312 256.545 355.31 251.77C355.312 246.996 357.237 242.699 360.366 239.567C363.496 236.441 367.795 234.514 372.567 234.514C374.347 234.514 376.059 234.783 377.671 235.281L380.766 236.237L381.097 233.016C381.69 227.225 384.434 222.071 388.522 218.358C392.614 214.646 398.023 212.391 403.983 212.39C410.343 212.391 416.079 214.961 420.252 219.129C424.42 223.3 426.989 229.036 426.989 235.4C426.989 235.624 426.981 235.886 426.969 236.191L426.869 239.047L429.67 238.94C433.821 238.948 437.557 240.622 440.282 243.345C443.008 246.075 444.687 249.819 444.691 253.983C444.688 258.146 443.009 261.89 440.282 264.62Z" fill="#5A748C"/>
<path d="M500.555 415.786C502.313 415.786 503.738 414.361 503.738 412.603C503.738 410.845 502.313 409.42 500.555 409.42C498.797 409.42 497.372 410.845 497.372 412.603C497.372 414.361 498.797 415.786 500.555 415.786Z" fill="#25333C"/>
<path d="M479.395 415.787C481.151 415.787 482.576 414.361 482.576 412.603C482.576 410.846 481.151 409.42 479.395 409.42C477.637 409.42 476.211 410.846 476.211 412.603C476.211 414.361 477.637 415.787 479.395 415.787Z" fill="#25333C"/>
<path d="M491.151 428.215C492.909 428.215 494.334 426.79 494.334 425.032C494.334 423.274 492.909 421.849 491.151 421.849C489.393 421.849 487.968 423.274 487.968 425.032C487.968 426.79 489.393 428.215 491.151 428.215Z" fill="#25333C"/>
<path d="M479.395 434.635C477.637 434.635 476.211 436.061 476.211 437.817C476.211 439.575 477.637 441 479.395 441C481.152 441 482.578 439.575 482.578 437.817C482.578 436.061 481.152 434.635 479.395 434.635Z" fill="#25333C"/>
<path d="M500.556 434.635C498.799 434.635 497.373 436.061 497.373 437.817C497.373 439.575 498.799 441 500.556 441C502.314 441 503.74 439.575 503.74 437.817C503.74 436.061 502.314 434.635 500.556 434.635Z" fill="#25333C"/>
<path d="M541.39 371.554C538.474 368.635 534.594 366.669 530.285 366.123C529.909 359.374 527.045 353.273 522.563 348.795C517.754 343.982 511.085 340.998 503.743 341C496.866 340.998 490.577 343.618 485.857 347.904C481.798 351.588 478.892 356.521 477.715 362.09C476.574 361.901 475.406 361.794 474.215 361.794C468.367 361.791 463.049 364.171 459.218 368.005C455.385 371.835 453.005 377.153 453.007 383.003C453.005 388.851 455.385 394.171 459.218 398.001C463.049 401.835 468.367 404.213 474.215 404.212H527.863C533.138 404.213 537.936 402.067 541.39 398.61C544.848 395.154 546.995 390.357 546.993 385.083C546.995 379.807 544.848 375.008 541.39 371.554ZM537.861 395.08C535.295 397.643 531.775 399.221 527.863 399.222H474.215C469.73 399.221 465.691 397.411 462.748 394.471C459.807 391.527 457.999 387.49 457.996 383.003C457.999 378.515 459.807 374.477 462.748 371.533C465.691 368.595 469.73 366.784 474.215 366.784C475.89 366.784 477.498 367.036 479.014 367.504L481.922 368.404L482.233 365.376C482.792 359.933 485.369 355.089 489.213 351.599C493.059 348.11 498.141 345.991 503.743 345.989C509.722 345.991 515.113 348.406 519.034 352.323C522.951 356.244 525.366 361.635 525.368 367.616C525.368 367.827 525.36 368.073 525.349 368.36L525.253 371.044L527.887 370.944C531.79 370.952 535.3 372.525 537.861 375.084C540.424 377.65 542.002 381.169 542.004 385.083C542.002 388.995 540.424 392.514 537.861 395.08Z" fill="#25333C"/>
<path d="M537.861 395.08C535.295 397.643 531.775 399.221 527.863 399.222H474.215C469.73 399.221 465.691 397.411 462.748 394.471C459.807 391.527 457.999 387.49 457.996 383.003C457.999 378.515 459.807 374.477 462.748 371.533C465.691 368.595 469.73 366.784 474.215 366.784C475.89 366.784 477.498 367.036 479.014 367.504L481.922 368.404L482.233 365.376C482.792 359.933 485.369 355.089 489.213 351.599C493.059 348.11 498.141 345.991 503.743 345.989C509.722 345.991 515.113 348.406 519.034 352.323C522.951 356.244 525.366 361.635 525.368 367.616C525.368 367.827 525.36 368.073 525.349 368.36L525.253 371.044L527.887 370.944C531.79 370.952 535.3 372.525 537.861 375.084C540.424 377.65 542.002 381.169 542.004 385.083C542.002 388.995 540.424 392.514 537.861 395.08Z" fill="#E7F6FF"/>
<path d="M21.7166 415.786C23.4746 415.786 24.8998 414.361 24.8998 412.603C24.8998 410.845 23.4746 409.42 21.7166 409.42C19.9586 409.42 18.5334 410.845 18.5334 412.603C18.5334 414.361 19.9586 415.786 21.7166 415.786Z" fill="#25333C"/>
<path d="M0.554908 415.786C2.31294 415.786 3.73811 414.361 3.73811 412.603C3.73811 410.845 2.31294 409.42 0.554908 409.42C-1.20313 409.42 -2.6283 410.845 -2.6283 412.603C-2.6283 414.361 -1.20313 415.786 0.554908 415.786Z" fill="#25333C"/>
<path d="M12.3111 428.215C14.0692 428.215 15.4943 426.79 15.4943 425.032C15.4943 423.274 14.0692 421.849 12.3111 421.849C10.5531 421.849 9.12793 423.274 9.12793 425.032C9.12793 426.79 10.5531 428.215 12.3111 428.215Z" fill="#25333C"/>
<path d="M0.556434 434.635C-1.20118 434.635 -2.62677 436.061 -2.62677 437.817C-2.62677 439.575 -1.20118 441 0.556434 441C2.31425 441 3.73983 439.575 3.73983 437.817C3.73964 436.061 2.31405 434.635 0.556434 434.635Z" fill="#25333C"/>
<path d="M21.7166 434.635C19.9606 434.635 18.535 436.061 18.535 437.817C18.535 439.575 19.9606 441 21.7166 441C23.4744 441 24.8998 439.575 24.8998 437.817C24.8998 436.061 23.4744 434.635 21.7166 434.635Z" fill="#25333C"/>
<path d="M41.3899 371.554C38.4738 368.635 34.594 366.669 30.2848 366.123C29.909 359.374 27.0449 353.273 22.5625 348.795C17.7541 343.982 11.0846 340.998 3.74279 341C-3.13397 340.998 -9.42284 343.618 -14.1433 347.904C-18.2016 351.588 -21.1076 356.521 -22.2853 362.09C-23.4258 361.901 -24.5939 361.794 -25.7846 361.794C-31.6328 361.791 -36.951 364.171 -40.7824 368.005C-44.6152 371.835 -46.9949 377.153 -46.9933 383.003C-46.9949 388.851 -44.6152 394.171 -40.7824 398.001C-36.9512 401.835 -31.6328 404.213 -25.7846 404.212H27.8629C33.1375 404.213 37.936 402.067 41.3899 398.61C44.8484 395.154 46.9949 390.357 46.9934 385.083C46.9949 379.807 44.8484 375.008 41.3899 371.554ZM37.8613 395.08C35.2953 397.643 31.7752 399.221 27.8629 399.222H-25.7846C-30.2703 399.221 -34.3088 397.411 -37.2523 394.471C-40.1926 391.527 -42.0008 387.49 -42.0039 383.003C-42.0008 378.515 -40.1928 374.477 -37.2523 371.533C-34.3088 368.595 -30.2703 366.784 -25.7846 366.784C-24.1096 366.784 -22.5023 367.036 -20.9861 367.504L-18.0783 368.404L-17.7674 365.376C-17.2084 359.933 -14.6308 355.089 -10.7867 351.599C-6.941 348.11 -1.85897 345.991 3.74279 345.989C9.72208 345.991 15.1135 348.406 19.0338 352.323C22.951 356.244 25.3664 361.635 25.368 367.616C25.368 367.827 25.3598 368.073 25.3486 368.36L25.2529 371.044L27.8871 370.944C31.7899 370.952 35.3002 372.525 37.8613 375.084C40.4242 377.65 42.002 381.169 42.0037 385.083C42.0022 388.995 40.4242 392.514 37.8613 395.08Z" fill="#25333C"/>
<path d="M37.8613 395.08C35.2953 397.643 31.7752 399.221 27.8629 399.222H-25.7846C-30.2703 399.221 -34.3088 397.411 -37.2523 394.471C-40.1926 391.527 -42.0008 387.49 -42.0039 383.003C-42.0008 378.515 -40.1928 374.477 -37.2523 371.533C-34.3088 368.595 -30.2703 366.784 -25.7846 366.784C-24.1096 366.784 -22.5023 367.036 -20.9861 367.504L-18.0783 368.404L-17.7674 365.376C-17.2084 359.933 -14.6308 355.089 -10.7867 351.599C-6.941 348.11 -1.85897 345.991 3.74279 345.989C9.72208 345.991 15.1135 348.406 19.0338 352.323C22.951 356.244 25.3664 361.635 25.368 367.616C25.368 367.827 25.3598 368.073 25.3486 368.36L25.2529 371.044L27.8871 370.944C31.7899 370.952 35.3002 372.525 37.8613 375.084C40.4242 377.65 42.002 381.169 42.0037 385.083C42.0022 388.995 40.4242 392.514 37.8613 395.08Z" fill="#E7F6FF"/>
<path d="M194.038 375.376C190.941 372.277 186.828 370.174 182.254 369.588C181.854 362.409 178.775 355.927 174.006 351.161C168.89 346.04 161.794 342.865 153.982 342.867C146.666 342.865 139.973 345.652 134.952 350.213C130.636 354.132 127.533 359.379 126.282 365.305C125.07 365.103 123.831 364.991 122.566 364.991C116.342 364.989 110.685 367.52 106.608 371.601C102.53 375.676 99.9984 381.335 100 387.557C99.9984 393.781 102.53 399.44 106.609 403.514C110.685 407.594 116.342 410.125 122.566 410.125H137.091L137.773 404.814H122.566C117.793 404.812 113.494 402.887 110.364 399.759C107.236 396.628 105.311 392.332 105.309 387.557C105.311 382.784 107.236 378.486 110.364 375.356C113.494 372.229 117.793 370.302 122.566 370.3C124.348 370.3 126.058 370.569 127.671 371.069L130.765 372.025L131.096 368.802C131.69 363.011 134.433 357.859 138.521 354.144C142.615 350.433 148.022 348.177 153.982 348.177C160.344 348.177 166.079 350.747 170.252 354.917C174.419 359.088 176.989 364.824 176.991 371.186C176.991 371.384 176.983 371.611 176.974 371.873C176.973 371.908 176.972 371.943 176.97 371.979L176.869 374.835L179.671 374.726C183.822 374.735 187.557 376.41 190.284 379.132C193.011 381.864 194.689 385.608 194.689 389.77C194.689 393.933 193.011 397.676 190.284 400.406C187.552 403.133 183.808 404.812 179.646 404.814H171.926L168.33 410.124H179.646C185.258 410.124 190.363 407.842 194.038 404.162C197.718 400.487 200.002 395.382 200 389.77C200.002 384.158 197.718 379.051 194.038 375.376Z" fill="#25333C"/>
<path d="M122.566 404.814H137.773L171.926 404.814H179.646C183.808 404.812 187.552 403.133 190.284 400.406C193.011 397.676 194.689 393.933 194.689 389.77C194.689 385.608 193.011 381.864 190.284 379.132C187.557 376.41 183.822 374.735 179.671 374.726L176.869 374.835L176.97 371.979L176.974 371.873C176.983 371.611 176.991 371.384 176.991 371.186C176.989 364.824 174.419 359.088 170.252 354.917C166.079 350.747 160.344 348.177 153.982 348.177C148.022 348.177 142.615 350.433 138.521 354.144C134.433 357.859 131.69 363.011 131.096 368.802L130.765 372.025L127.671 371.069C126.058 370.569 124.348 370.3 122.566 370.3C117.793 370.302 113.494 372.229 110.364 375.356C107.236 378.486 105.311 382.784 105.309 387.557C105.311 392.332 107.236 396.628 110.364 399.759C113.494 402.887 117.793 404.812 122.566 404.814Z" fill="#5A748C"/>
<path d="M137.773 404.814L137.091 410.125L168.33 410.124L171.926 404.814L137.773 404.814Z" fill="#5A748C"/>
<path d="M163.64 386.23H145.514L142.219 411.893H149.634L146.338 433.133L166.112 403.93H157.049L163.64 386.23Z" fill="#25333C"/>
<path d="M294.038 -13.5684C290.941 -16.6676 286.828 -18.7719 282.254 -19.358C281.854 -26.5352 278.776 -33.0193 274.006 -37.7832C268.891 -42.9041 261.795 -46.0789 253.983 -46.0771C246.666 -46.0789 239.974 -43.2918 234.953 -38.7311C230.635 -34.8135 227.535 -29.5668 226.283 -23.6393C225.071 -23.8408 223.83 -23.9529 222.567 -23.9529C216.343 -23.9562 210.687 -21.4244 206.61 -17.3447C202.53 -13.2703 199.998 -7.61152 200 -1.38769C199.998 4.83458 202.53 10.4947 206.61 14.5693C210.586 18.5492 216.071 21.0361 222.116 21.1553V15.8467C217.526 15.7262 213.396 13.8422 210.366 10.8139C207.237 7.68184 205.312 3.38672 205.31 -1.3875C205.312 -6.16191 207.237 -10.459 210.366 -13.5906C213.496 -16.7172 217.794 -18.6443 222.567 -18.6443C224.349 -18.6443 226.059 -18.3754 227.671 -17.8771L230.766 -16.9205L231.097 -20.142C231.691 -25.9334 234.432 -31.0869 238.522 -34.7994C242.616 -38.5121 248.021 -40.7666 253.983 -40.7682C260.343 -40.7666 266.079 -38.1967 270.252 -34.0289C274.42 -29.8578 276.989 -24.1217 276.991 -17.758C276.991 -17.559 276.983 -17.3299 276.974 -17.0674C276.973 -17.0345 276.971 -17.001 276.97 -16.967L276.869 -14.1109L279.671 -14.218C283.822 -14.2111 287.557 -12.5355 290.284 -9.8125C293.01 -7.08222 294.687 -3.33867 294.689 0.825588C294.687 4.98809 293.01 8.73184 290.284 11.4619C287.809 13.9336 284.497 15.5297 280.8 15.8107V21.1193C285.954 20.8299 290.618 18.6408 294.038 15.2178C297.717 11.5414 300.001 6.4377 300 0.825588C300.002 -4.78848 297.718 -9.89375 294.038 -13.5684Z" fill="#25333C"/>
<path d="M210.366 10.8139C213.396 13.8422 217.526 15.7262 222.116 15.8467L280.8 15.8107C284.497 15.5297 287.809 13.9336 290.284 11.4619C293.01 8.73184 294.687 4.98809 294.689 0.825588C294.687 -3.33867 293.01 -7.08222 290.284 -9.8125C287.557 -12.5355 283.822 -14.2111 279.671 -14.218L276.869 -14.1109L276.97 -16.967L276.974 -17.0674C276.983 -17.3299 276.991 -17.559 276.991 -17.758C276.989 -24.1217 274.42 -29.8578 270.252 -34.0289C266.079 -38.1967 260.343 -40.7666 253.983 -40.7682C248.021 -40.7666 242.616 -38.5121 238.522 -34.7994C234.432 -31.0869 231.691 -25.9334 231.097 -20.142L230.766 -16.9205L227.671 -17.8771C226.059 -18.3754 224.349 -18.6443 222.567 -18.6443C217.794 -18.6443 213.496 -16.7172 210.366 -13.5906C207.237 -10.459 205.312 -6.16191 205.31 -1.3875C205.312 3.38672 207.237 7.68184 210.366 10.8139Z" fill="#E7F6FF"/>
<path d="M222.116 15.8467V21.1553L280.8 21.1193V15.8107L222.116 15.8467Z" fill="#E7F6FF"/>
<path d="M274.663 2.46279L267.415 6.64931L267.424 0.458299L264.178 0.454782L264.166 8.52295L253.108 14.9089L252.73 15.1278V1.91982L259.713 -2.12217L258.087 -4.93311L252.73 -1.83076V-10.2007H249.485V-1.83076L244.128 -4.93311L242.502 -2.12217L249.485 1.91982V15.1278L238.048 8.52295L238.037 0.454782L234.791 0.458299L234.798 6.64756L227.552 2.46279L225.926 5.27568L233.174 9.45889L227.81 12.5476L229.432 15.3604L236.423 11.3356L247.859 17.939L236.425 24.5421L229.432 20.5157L227.81 23.3286L233.178 26.4175L225.926 30.6024L227.552 33.4134L234.798 29.2284L234.791 35.4181L238.037 35.4214L238.045 27.3532L249.485 20.7501V21.1845V33.9565L242.502 37.9983L244.128 40.8077L249.485 37.7071V46.0767H252.73V37.7071L258.087 40.8077L259.713 37.9983L252.73 33.9565V21.1845V20.7501L253.108 20.9673L264.166 27.3532L264.178 35.4214L267.424 35.4181L267.417 29.2284L274.663 33.4134L276.288 30.6024L269.037 26.4175L274.405 23.3286L272.783 20.5157L265.79 24.5421L254.73 18.1562L254.354 17.939L254.73 17.72L265.792 11.3356L272.783 15.3604L274.405 12.5476L269.039 9.46045L276.288 5.27568L274.663 2.46279Z" fill="#25333C"/>
</g>
<defs>
<clipPath id="clip0_3954_5130">
<rect width="500" height="500" fill="white"/>
</clipPath>
</defs>
</svg>
